<svg xmlns="http://www.w3.org/2000/svg" viewBox="0 0 85.99 30.3"><defs><style>.cls-1{fill:#044f9d;}.cls-2{fill:none;stroke:#fff;stroke-miterlimit:10;stroke-width:0.95px;}.cls-3{fill:#fff;}.cls-4{fill:#fddc2d;}</style></defs><g id="Capa_2" data-name="Capa 2"><g id="Capa_1-2" data-name="Capa 1"><path class="cls-1" d="M85.5,24.79c0-.18,0-.36,0-.53V5.74c0-.07,0-.17,0-.25a5,5,0,0,0-5-5h-75v0a5,5,0,0,0-5,5h0V24.69s0,.1,0,.13a5,5,0,0,0,5,5H80.52a5,5,0,0,0,5-5"/><path class="cls-2" d="M85.5,24.79c0-.18,0-.36,0-.53V5.74c0-.07,0-.17,0-.25a5,5,0,0,0-5-5h-75v0a5,5,0,0,0-5,5h0V24.69s0,.1,0,.13a5,5,0,0,0,5,5H80.52a5,5,0,0,0,5-5"/><path class="cls-3" d="M39.83,26.48H37.32V22a.43.43,0,0,0-.21-.39,1.53,1.53,0,0,0-.64-.11H36a2.7,2.7,0,0,0-.4.07v4.93H33.15v-7.7h2.49v2a3.07,3.07,0,0,1,.74-.2,7.1,7.1,0,0,1,1-.06,3.79,3.79,0,0,1,1.82.36,1.16,1.16,0,0,1,.66,1.06Z"/><path class="cls-3" d="M47.84,23.51a2.86,2.86,0,0,1-.84,2.3,3.73,3.73,0,0,1-2.52.73A3.59,3.59,0,0,1,42,25.77a2.88,2.88,0,0,1-.83-2.26A2.93,2.93,0,0,1,42,21.23a3.64,3.64,0,0,1,2.51-.73,3.65,3.65,0,0,1,2.58.74,3,3,0,0,1,.78,2.27m-2.61,0a8.14,8.14,0,0,0-.12-1.77.72.72,0,0,0-1.23,0,8.48,8.48,0,0,0-.11,1.77,7.26,7.26,0,0,0,.12,1.73.57.57,0,0,0,.61.36.56.56,0,0,0,.58-.38,6,6,0,0,0,.15-1.73"/><path class="cls-3" d="M53.57,21.31H52V25a.58.58,0,0,0,.28.55,2.84,2.84,0,0,0,1.07.13v.79H52a3.84,3.84,0,0,1-1.83-.34,1.16,1.16,0,0,1-.62-1.07V21.31h-1v-.73h1v-1.8H52v1.8h1.54Z"/><path class="cls-3" d="M60.72,23.61H57.07a4.9,4.9,0,0,0,.17,1.65.72.72,0,0,0,.72.37.89.89,0,0,0,.54-.14.56.56,0,0,0,.18-.47h1.79a1.22,1.22,0,0,1-.69,1.15,4.68,4.68,0,0,1-2.11.37,3.38,3.38,0,0,1-2.39-.77,2.91,2.91,0,0,1-.82-2.26,2.88,2.88,0,0,1,.85-2.26,3.78,3.78,0,0,1,2.56-.75,3.16,3.16,0,0,1,2.15.61,2.3,2.3,0,0,1,.7,1.83Zm-2.08-.86a2.58,2.58,0,0,0-.14-1.06c-.09-.18-.31-.28-.64-.28a.7.7,0,0,0-.64.25,2.74,2.74,0,0,0-.14,1.09Z"/><path class="cls-3" d="M65.67,26.48H64.09a2.62,2.62,0,0,1-1.4-.3,1,1,0,0,1-.48-.89V18.78H64.7v6.46a.35.35,0,0,0,.2.35,1.86,1.86,0,0,0,.77.1Z"/><path class="cls-3" d="M72.77,23.61H69.12a4.9,4.9,0,0,0,.17,1.65.72.72,0,0,0,.72.37.89.89,0,0,0,.54-.14.56.56,0,0,0,.18-.47h1.79a1.23,1.23,0,0,1-.68,1.15,4.73,4.73,0,0,1-2.12.37,3.38,3.38,0,0,1-2.39-.77,2.91,2.91,0,0,1-.82-2.26,2.89,2.89,0,0,1,.86-2.26,3.73,3.73,0,0,1,2.55-.75,3.14,3.14,0,0,1,2.15.61,2.27,2.27,0,0,1,.7,1.83Zm-2.08-.86a2.76,2.76,0,0,0-.14-1.06c-.09-.18-.31-.28-.64-.28s-.53.08-.63.25a2.51,2.51,0,0,0-.15,1.09Z"/><path class="cls-3" d="M79.56,24.94a1.28,1.28,0,0,1-.77,1.18,4.39,4.39,0,0,1-2.1.42,4.73,4.73,0,0,1-2.16-.39A1.27,1.27,0,0,1,73.8,25h2a.51.51,0,0,0,.21.46,1,1,0,0,0,.59.15,1.1,1.1,0,0,0,.57-.12.38.38,0,0,0,.19-.35q0-.21-.39-.45c-.27-.16-.71-.4-1.3-.7a4.29,4.29,0,0,1-1.46-1,1.88,1.88,0,0,1-.3-1,1.17,1.17,0,0,1,.77-1,4.54,4.54,0,0,1,2-.38,4.35,4.35,0,0,1,2.06.39A1.2,1.2,0,0,1,79.5,22h-2a.53.53,0,0,0-.19-.43.88.88,0,0,0-.55-.16.94.94,0,0,0-.49.11.34.34,0,0,0-.19.32.65.65,0,0,0,.22.47,8,8,0,0,0,1.42.83,6.5,6.5,0,0,1,1.46.93,1.25,1.25,0,0,1,.4.87"/><path class="cls-4" d="M39,10.46H35.4a9.29,9.29,0,0,0,.17,2.28.68.68,0,0,0,.71.48.74.74,0,0,0,.55-.18A.91.91,0,0,0,37,12.4h1.76A1.84,1.84,0,0,1,38.09,14a3.48,3.48,0,0,1-2.09.51,2.81,2.81,0,0,1-2.37-1.05,5,5,0,0,1-.81-3.1,4.94,4.94,0,0,1,.83-3.1,3.06,3.06,0,0,1,2.53-1A2.58,2.58,0,0,1,38.31,7,3.91,3.91,0,0,1,39,9.55ZM37,9.29a5.49,5.49,0,0,0-.14-1.45.61.61,0,0,0-.64-.4.62.62,0,0,0-.63.35,5,5,0,0,0-.15,1.5Z"/><path class="cls-4" d="M46.53,14.39H44.07V11.54L43,10.67l-.57.44v3.28H40V12.05a.74.74,0,0,1,.17-.41,2.49,2.49,0,0,1,.43-.43L42.15,10l-2-1.62V6.3h2.46V8.06l1,.83L44,8.61V6.3h2.4V7.52a1.16,1.16,0,0,1-.14.52,1.32,1.32,0,0,1-.43.49l-1.37,1,2.08,1.69Z"/><path class="cls-4" d="M54.31,10.15c0,.41,0,.79,0,1.13s-.06.69-.1,1.07a2.19,2.19,0,0,1-.8,1.49,2.7,2.7,0,0,1-1.77.55,6.25,6.25,0,0,1-.94-.05,1.26,1.26,0,0,1-.5-.14v2.33H47.72l0-10.23h2l.13.37a2.55,2.55,0,0,1,.92-.37,5.32,5.32,0,0,1,1.1-.11,2.3,2.3,0,0,1,1.56.49,2.16,2.16,0,0,1,.72,1.38c0,.22.07.53.1.91s0,.77,0,1.18m-2.59,0c0-.43,0-.8,0-1.11a5.52,5.52,0,0,0-.08-.8,1,1,0,0,0-.26-.55.8.8,0,0,0-.57-.18s0,0,0,0l-.62.11v5.49a.57.57,0,0,0,.29.11,2.44,2.44,0,0,0,.44,0,.78.78,0,0,0,.52-.18.67.67,0,0,0,.22-.54c0-.15,0-.5,0-1s0-1,0-1.33"/><path class="cls-4" d="M60.3,8l-.6-.15a4,4,0,0,0-.62,0c-.23,0-.46,0-.68,0a1,1,0,0,0-.48.14v6.37H55.45V6.3h2l.15.34a2.47,2.47,0,0,1,.81-.34,4.46,4.46,0,0,1,1-.11,1.73,1.73,0,0,1,.45,0,2.75,2.75,0,0,1,.41.11Z"/><path class="cls-4" d="M66.8,10.46H63.19a8.63,8.63,0,0,0,.18,2.28.68.68,0,0,0,.72.48.73.73,0,0,0,.54-.18.91.91,0,0,0,.18-.64h1.76A1.84,1.84,0,0,1,65.89,14a3.48,3.48,0,0,1-2.09.51,2.81,2.81,0,0,1-2.37-1.05,4.92,4.92,0,0,1-.81-3.1,4.94,4.94,0,0,1,.83-3.1,3.06,3.06,0,0,1,2.53-1A2.58,2.58,0,0,1,66.11,7a4,4,0,0,1,.69,2.52Zm-2-1.17a5.08,5.08,0,0,0-.14-1.45.61.61,0,0,0-.65-.4.6.6,0,0,0-.62.35,4.68,4.68,0,0,0-.15,1.5Z"/><path class="cls-4" d="M73.29,12.3a1.9,1.9,0,0,1-.76,1.6,3.29,3.29,0,0,1-2.07.58,3.52,3.52,0,0,1-2.13-.54,1.85,1.85,0,0,1-.71-1.6h2a.86.86,0,0,0,.2.63,1,1,0,0,0,1.14,0,.55.55,0,0,0,.19-.46.89.89,0,0,0-.39-.63,15.33,15.33,0,0,0-1.28-1A4.57,4.57,0,0,1,68,9.59a3.2,3.2,0,0,1-.3-1.45,1.66,1.66,0,0,1,.76-1.42,3.49,3.49,0,0,1,2-.53,3.29,3.29,0,0,1,2,.54,1.85,1.85,0,0,1,.69,1.54h-2a.9.9,0,0,0-.19-.6.69.69,0,0,0-.55-.23A.71.71,0,0,0,70,7.6a.52.52,0,0,0-.19.44,1.06,1.06,0,0,0,.22.64,8,8,0,0,0,1.41,1.15,6.83,6.83,0,0,1,1.43,1.27,2,2,0,0,1,.4,1.2"/><path class="cls-4" d="M79.56,12.3a1.89,1.89,0,0,1-.75,1.6,3.29,3.29,0,0,1-2.07.58,3.52,3.52,0,0,1-2.13-.54,1.88,1.88,0,0,1-.71-1.6h2a.82.82,0,0,0,.2.63.81.81,0,0,0,.59.2.83.83,0,0,0,.56-.16.57.57,0,0,0,.18-.46.89.89,0,0,0-.39-.63,13.78,13.78,0,0,0-1.28-1,4.57,4.57,0,0,1-1.43-1.37A3.2,3.2,0,0,1,74,8.14a1.66,1.66,0,0,1,.76-1.42,3.47,3.47,0,0,1,2-.53,3.29,3.29,0,0,1,2,.54,1.83,1.83,0,0,1,.7,1.54h-2a.9.9,0,0,0-.2-.6.68.68,0,0,0-.54-.23.71.71,0,0,0-.49.16.52.52,0,0,0-.19.44,1,1,0,0,0,.23.64,7.38,7.38,0,0,0,1.4,1.15,6.58,6.58,0,0,1,1.43,1.27,2,2,0,0,1,.39,1.2"/><path class="cls-3" d="M11.57,8.59H8.84a1.77,1.77,0,0,0-.17-1,.65.65,0,0,0-.56-.22A.78.78,0,0,0,7.27,8a10.38,10.38,0,0,0-.17,2.28,8.82,8.82,0,0,0,.2,2.42.81.81,0,0,0,.85.51.91.91,0,0,0,.6-.17,1.1,1.1,0,0,0,.27-.7h2.3A1.73,1.73,0,0,1,10.45,14a5.07,5.07,0,0,1-2.59.52,3.94,3.94,0,0,1-3-1,4.34,4.34,0,0,1-1-3.14,4.23,4.23,0,0,1,1-3.12,4.29,4.29,0,0,1,3.16-1,4.64,4.64,0,0,1,2.58.6,2.08,2.08,0,0,1,.9,1.84"/><rect class="cls-3" x="12.37" y="6.3" width="3.08" height="8.17"/><path class="cls-3" d="M22.57,7.32H20.65v5.09a.78.78,0,0,0,.35.75,3,3,0,0,0,1.32.2v1.09H20.56A4.29,4.29,0,0,1,18.3,14a1.64,1.64,0,0,1-.77-1.48V7.32H16.36v-1h1.17V3.78h3.12v2.5h1.92Z"/><path class="cls-3" d="M31.56,14.19a2,2,0,0,1-1.16,1.86,7.07,7.07,0,0,1-3.37.64,13.52,13.52,0,0,1-1.68-.1,8.52,8.52,0,0,1-1.55-.3l.32-.95c.48.09.93.16,1.34.2s.81.06,1.21.06a2.4,2.4,0,0,0,1.46-.35,1.21,1.21,0,0,0,.48-1.05c0-.06,0-.14,0-.24a1.26,1.26,0,0,1,0-.21l-.34.3H26.16l-2.82-2.19V6.28h3.08V12l1.39,1.1.67-.6V6.28h3.08Z"/><rect class="cls-3" x="12.3" y="3.77" width="3.23" height="1.76"/><path class="cls-3" d="M81.05,12.3a1.13,1.13,0,0,1,.52.14.92.92,0,0,1,.39.39,1,1,0,0,1,.15.54,1.13,1.13,0,0,1-.14.53,1,1,0,0,1-.39.39,1,1,0,0,1-.53.14,1,1,0,0,1-.53-.14,1,1,0,0,1-.4-.39,1.09,1.09,0,0,1,0-1.07,1,1,0,0,1,.4-.39,1.13,1.13,0,0,1,.53-.14m0,.18a.88.88,0,0,0-.44.12.78.78,0,0,0-.33.32.92.92,0,0,0-.12.45,1,1,0,0,0,.11.44.83.83,0,0,0,.34.33.85.85,0,0,0,.44.11.87.87,0,0,0,.44-.11.78.78,0,0,0,.32-.33.88.88,0,0,0,.12-.44.92.92,0,0,0-.12-.45.78.78,0,0,0-.33-.32.85.85,0,0,0-.43-.12M80.58,14V12.81H81a1,1,0,0,1,.29,0,.33.33,0,0,1,.15.11.37.37,0,0,1,0,.17.29.29,0,0,1-.09.22.33.33,0,0,1-.24.1l.1.07a.88.88,0,0,1,.17.22l.14.23h-.23l-.1-.19a1,1,0,0,0-.19-.26.21.21,0,0,0-.15,0h-.11V14Zm.18-.65H81c.1,0,.18,0,.21-.05a.14.14,0,0,0,.06-.12.24.24,0,0,0,0-.09.16.16,0,0,0-.08-.06A.39.39,0,0,0,81,13h-.22Z"/></g></g></svg>