<svg xmlns="http://www.w3.org/2000/svg" viewBox="0 0 135.5 39.43"><defs><style>.cls-1{fill:#fff;}.cls-2{fill:#fddc2d;}</style></defs><g id="Capa_2" data-name="Capa 2"><g id="Capa_2-2" data-name="Capa 2"><path class="cls-1" d="M62.27,39.34H57.93V31.52a.72.72,0,0,0-.37-.66,2.5,2.5,0,0,0-1.1-.21l-.75,0a4.62,4.62,0,0,0-.69.12v8.54H50.7V26H55v3.43a4.6,4.6,0,0,1,1.28-.34A10.65,10.65,0,0,1,58,29a6.61,6.61,0,0,1,3.16.63,2,2,0,0,1,1.14,1.83Z"/><path class="cls-1" d="M76.15,34.2a5,5,0,0,1-1.45,4,6.44,6.44,0,0,1-4.37,1.25A6.24,6.24,0,0,1,66,38.12a5,5,0,0,1-1.44-3.92,5.08,5.08,0,0,1,1.4-4A6.3,6.3,0,0,1,70.33,29c2.08,0,3.57.43,4.46,1.29a5.21,5.21,0,0,1,1.36,3.94m-4.53,0a12.71,12.71,0,0,0-.21-3.05,1,1,0,0,0-1-.6,1,1,0,0,0-1.06.63,12.92,12.92,0,0,0-.21,3.07,11,11,0,0,0,.23,3,1,1,0,0,0,1,.62,1,1,0,0,0,1-.66,11.22,11.22,0,0,0,.24-3"/><path class="cls-1" d="M86.07,30.39H83.41v6.4a.94.94,0,0,0,.49,1,4.73,4.73,0,0,0,1.84.23v1.37H83.26a6.61,6.61,0,0,1-3.16-.6A2,2,0,0,1,79,36.89v-6.5H77.35V29.13H79V26h4.39v3.13h2.66Z"/><path class="cls-1" d="M98.46,34.36H92.14a8.37,8.37,0,0,0,.29,2.87,1.24,1.24,0,0,0,1.24.63,1.49,1.49,0,0,0,.94-.24,1,1,0,0,0,.32-.82H98a2.14,2.14,0,0,1-1.19,2,8.09,8.09,0,0,1-3.66.63A5.91,5.91,0,0,1,89,38.12a5.12,5.12,0,0,1-1.41-3.92,5,5,0,0,1,1.47-3.91A6.46,6.46,0,0,1,93.52,29,5.54,5.54,0,0,1,97.25,30a4,4,0,0,1,1.21,3.17Zm-3.6-1.48A4.56,4.56,0,0,0,94.62,31a1.15,1.15,0,0,0-1.11-.49c-.57,0-.93.14-1.11.44a4.45,4.45,0,0,0-.25,1.89Z"/><path class="cls-1" d="M107,39.34H104.3a4.69,4.69,0,0,1-2.44-.51,1.69,1.69,0,0,1-.83-1.55V26h4.33V37.19a.62.62,0,0,0,.34.61A3,3,0,0,0,107,38Z"/><path class="cls-1" d="M119.33,34.36H113a8.28,8.28,0,0,0,.3,2.87,1.25,1.25,0,0,0,1.24.63,1.56,1.56,0,0,0,.95-.24,1,1,0,0,0,.31-.82h3.09a2.11,2.11,0,0,1-1.18,2,8.09,8.09,0,0,1-3.66.63,5.91,5.91,0,0,1-4.14-1.31,5.09,5.09,0,0,1-1.42-3.92A5,5,0,0,1,110,30.29,6.39,6.39,0,0,1,114.38,29,5.58,5.58,0,0,1,118.13,30a4,4,0,0,1,1.2,3.17Zm-3.6-1.48a4.75,4.75,0,0,0-.24-1.84,1.16,1.16,0,0,0-1.12-.49c-.56,0-.91.14-1.09.44a4.24,4.24,0,0,0-.26,1.89Z"/><path class="cls-1" d="M131.09,36.68a2.2,2.2,0,0,1-1.34,2,7.49,7.49,0,0,1-3.63.72,8.16,8.16,0,0,1-3.74-.67,2.17,2.17,0,0,1-1.26-2h3.5a.91.91,0,0,0,.35.8,1.66,1.66,0,0,0,1,.25,2,2,0,0,0,1-.19.7.7,0,0,0,.34-.61c0-.24-.23-.51-.69-.79s-1.22-.68-2.24-1.21a7.51,7.51,0,0,1-2.53-1.73,3.18,3.18,0,0,1-.51-1.83,2,2,0,0,1,1.31-1.78,8,8,0,0,1,3.53-.68,7.49,7.49,0,0,1,3.56.68A2.1,2.1,0,0,1,131,31.57h-3.5a.88.88,0,0,0-.34-.73,1.41,1.41,0,0,0-.94-.29,1.66,1.66,0,0,0-.86.2.61.61,0,0,0-.32.55,1.12,1.12,0,0,0,.38.81,13.52,13.52,0,0,0,2.46,1.45,10.67,10.67,0,0,1,2.52,1.61,2.09,2.09,0,0,1,.7,1.51"/><path class="cls-2" d="M60.83,11.59H54.6a16.06,16.06,0,0,0,.29,3.94,1.19,1.19,0,0,0,1.24.85,1.28,1.28,0,0,0,.95-.32A1.58,1.58,0,0,0,57.39,15h3a3.18,3.18,0,0,1-1.18,2.72,6.06,6.06,0,0,1-3.62.88,4.9,4.9,0,0,1-4.11-1.81,8.71,8.71,0,0,1-1.4-5.38A8.48,8.48,0,0,1,51.58,6,5.28,5.28,0,0,1,56,4.2a4.5,4.5,0,0,1,3.7,1.45A6.85,6.85,0,0,1,60.83,10Zm-3.53-2a8.69,8.69,0,0,0-.25-2.52A1,1,0,0,0,56,6.37a1.05,1.05,0,0,0-1.09.6,8.59,8.59,0,0,0-.25,2.6Z"/><path class="cls-2" d="M73.88,18.4H69.61V13.46L67.74,12l-1,.75V18.4H62.5V14.34a1.29,1.29,0,0,1,.29-.71,3.76,3.76,0,0,1,.75-.74l2.75-2.09L62.8,8V4.39h4.26v3l1.79,1.44.62-.48v-4h4.17V6.5a1.86,1.86,0,0,1-.25.9,2.35,2.35,0,0,1-.74.85L70.27,10,73.88,13Z"/><path class="cls-2" d="M87.35,11.05c0,.72,0,1.37,0,2s-.09,1.2-.17,1.85a3.82,3.82,0,0,1-1.38,2.58,4.73,4.73,0,0,1-3.08,1,14,14,0,0,1-1.61-.08,2.62,2.62,0,0,1-.88-.25v4H75.94l0-17.71h3.53l.22.64a4.51,4.51,0,0,1,1.61-.65,9.22,9.22,0,0,1,1.9-.18,4.08,4.08,0,0,1,2.7.84,3.83,3.83,0,0,1,1.24,2.39A13.49,13.49,0,0,1,87.29,9c0,.66.06,1.34.06,2m-4.47,0c0-.75,0-1.39,0-1.93a12.08,12.08,0,0,0-.15-1.39,1.7,1.7,0,0,0-.45-.94,1.33,1.33,0,0,0-1-.32c-.1,0-.1,0,0,0l-1.07.19v9.51a1.28,1.28,0,0,0,.5.2,5.17,5.17,0,0,0,.76,0,1.38,1.38,0,0,0,.92-.31,1.17,1.17,0,0,0,.37-.93c0-.27.06-.86.09-1.78s.06-1.69.06-2.31"/><path class="cls-2" d="M97.72,7.4a7.58,7.58,0,0,0-1-.25,6.21,6.21,0,0,0-1.08-.09,11.22,11.22,0,0,0-1.18.06,1.91,1.91,0,0,0-.83.24v11H89.34v-14h3.48L93.1,5a4,4,0,0,1,1.39-.59,7.19,7.19,0,0,1,1.74-.19,4,4,0,0,1,.79.07,3.8,3.8,0,0,1,.7.21Z"/><path class="cls-2" d="M109,11.59h-6.24a15.37,15.37,0,0,0,.3,3.94,1.19,1.19,0,0,0,1.25.85,1.27,1.27,0,0,0,.94-.32,1.58,1.58,0,0,0,.32-1.11h3a3.17,3.17,0,0,1-1.17,2.72,6.1,6.1,0,0,1-3.63.88,4.89,4.89,0,0,1-4.1-1.81,8.64,8.64,0,0,1-1.4-5.38A8.42,8.42,0,0,1,99.73,6a5.29,5.29,0,0,1,4.37-1.8,4.45,4.45,0,0,1,3.69,1.45A6.79,6.79,0,0,1,109,10Zm-3.53-2a8.79,8.79,0,0,0-.24-2.52A1.27,1.27,0,0,0,103,7a8.26,8.26,0,0,0-.25,2.6Z"/><path class="cls-2" d="M120.22,14.78a3.25,3.25,0,0,1-1.31,2.77,5.73,5.73,0,0,1-3.58,1,6.07,6.07,0,0,1-3.68-.93,3.22,3.22,0,0,1-1.24-2.77h3.43a1.44,1.44,0,0,0,.34,1.08,1.35,1.35,0,0,0,1,.35,1.5,1.5,0,0,0,1-.27,1,1,0,0,0,.32-.81,1.54,1.54,0,0,0-.68-1.08,26.27,26.27,0,0,0-2.21-1.67,7.82,7.82,0,0,1-2.48-2.37,5.54,5.54,0,0,1-.52-2.5,2.85,2.85,0,0,1,1.32-2.46,5.87,5.87,0,0,1,3.47-.93,5.72,5.72,0,0,1,3.52.94,3.18,3.18,0,0,1,1.21,2.67h-3.43a1.59,1.59,0,0,0-.34-1,1.19,1.19,0,0,0-.94-.39,1.26,1.26,0,0,0-.85.27.91.91,0,0,0-.33.76,1.83,1.83,0,0,0,.39,1.11,13.73,13.73,0,0,0,2.43,2,11.5,11.5,0,0,1,2.48,2.2,3.46,3.46,0,0,1,.69,2.08"/><path class="cls-2" d="M131.1,14.78a3.3,3.3,0,0,1-1.3,2.77,5.78,5.78,0,0,1-3.59,1,6.12,6.12,0,0,1-3.69-.93,3.24,3.24,0,0,1-1.23-2.77h3.43a1.44,1.44,0,0,0,.34,1.08,1.35,1.35,0,0,0,1,.35,1.5,1.5,0,0,0,1-.27,1,1,0,0,0,.32-.81,1.58,1.58,0,0,0-.68-1.08,26.27,26.27,0,0,0-2.21-1.67A7.82,7.82,0,0,1,122,10.08a5.41,5.41,0,0,1-.52-2.5,2.86,2.86,0,0,1,1.31-2.46,5.92,5.92,0,0,1,3.48-.93,5.69,5.69,0,0,1,3.51.94A3.16,3.16,0,0,1,131,7.8h-3.43a1.54,1.54,0,0,0-.35-1,1.15,1.15,0,0,0-.93-.39,1.26,1.26,0,0,0-.85.27.91.91,0,0,0-.33.76,1.78,1.78,0,0,0,.4,1.11,13.12,13.12,0,0,0,2.42,2,11.5,11.5,0,0,1,2.48,2.2,3.4,3.4,0,0,1,.69,2.08"/><path class="cls-1" d="M13.32,8.35H8.6a3.14,3.14,0,0,0-.29-1.67,1.18,1.18,0,0,0-1-.37A1.36,1.36,0,0,0,5.88,7.4a17.46,17.46,0,0,0-.29,3.95,15.06,15.06,0,0,0,.34,4.18,1.4,1.4,0,0,0,1.47.89,1.62,1.62,0,0,0,1-.29,1.92,1.92,0,0,0,.45-1.21h4a3,3,0,0,1-1.51,2.79,8.87,8.87,0,0,1-4.49.89,6.83,6.83,0,0,1-5.15-1.82A7.54,7.54,0,0,1,0,11.35,7.33,7.33,0,0,1,1.82,5.94Q3.64,4.13,7.3,4.12a8,8,0,0,1,4.47,1,3.57,3.57,0,0,1,1.55,3.18"/><rect class="cls-1" x="14.71" y="4.38" width="5.34" height="14.15"/><path class="cls-1" d="M32.38,6.15H29.06V15a1.36,1.36,0,0,0,.6,1.31,5.24,5.24,0,0,0,2.28.34V18.5h-3A7.32,7.32,0,0,1,25,17.66a2.8,2.8,0,0,1-1.32-2.55v-9h-2V4.36h2V0h5.4V4.36h3.32Z"/><path class="cls-1" d="M48,18a3.53,3.53,0,0,1-2,3.24,12.51,12.51,0,0,1-5.85,1.1,23.9,23.9,0,0,1-2.91-.17,15.32,15.32,0,0,1-2.68-.53L35.06,20c.84.16,1.62.28,2.33.35s1.4.1,2.09.1a4.29,4.29,0,0,0,2.53-.6,2.11,2.11,0,0,0,.83-1.82,2.8,2.8,0,0,0-.06-.42,2.26,2.26,0,0,1,0-.35l-.6.5H38.6L33.72,14V4.36h5.34v9.89l2.39,1.89,1.16-1V4.36H48Z"/><rect class="cls-1" x="14.59" width="5.59" height="3.05"/><path class="cls-1" d="M133.66,14.78a1.91,1.91,0,0,1,.91.24,1.71,1.71,0,0,1,.68.68,1.83,1.83,0,0,1,.25.93,1.88,1.88,0,0,1-.24.91,1.74,1.74,0,0,1-.68.69,1.89,1.89,0,0,1-.92.24,1.82,1.82,0,0,1-.91-.24,1.76,1.76,0,0,1-.69-.69,1.88,1.88,0,0,1-.24-.91,1.92,1.92,0,0,1,.24-.93,1.89,1.89,0,0,1,1.6-.92m0,.31a1.54,1.54,0,0,0-.76.2,1.36,1.36,0,0,0-.57.57,1.64,1.64,0,0,0-.2.77,1.49,1.49,0,0,0,.2.76,1.36,1.36,0,0,0,.57.57,1.56,1.56,0,0,0,1.53,0,1.34,1.34,0,0,0,.56-.57,1.5,1.5,0,0,0,.21-.76,1.54,1.54,0,0,0-.21-.77,1.36,1.36,0,0,0-.57-.57,1.49,1.49,0,0,0-.76-.2m-.81,2.56v-2h.69a1.53,1.53,0,0,1,.5.06.47.47,0,0,1,.25.19.52.52,0,0,1,.09.29.54.54,0,0,1-.15.38.65.65,0,0,1-.42.18.67.67,0,0,1,.18.11,1.93,1.93,0,0,1,.29.39l.24.39h-.39l-.17-.32a1.9,1.9,0,0,0-.34-.45.35.35,0,0,0-.26-.07h-.19v.84Zm.32-1.12h.39a.53.53,0,0,0,.37-.09.23.23,0,0,0,.11-.21.42.42,0,0,0,0-.16.36.36,0,0,0-.14-.1.79.79,0,0,0-.32,0h-.37Z"/></g></g></svg>