<svg xmlns="http://www.w3.org/2000/svg" viewBox="0 0 100.26 41"><defs><style>.cls-1{fill:#fff;}</style></defs><title>logo</title><g id="Capa_2" data-name="Capa 2"><g id="Capa_2-2" data-name="Capa 2"><path class="cls-1" d="M39.81,9l.31-1.6a5,5,0,0,0,2.44.72c.76,0,1.21-.25,1.21-.76,0-.72-1.17-.94-2.23-1.52-.87-.48-1.61-1-1.61-2.18,0-1.57,1.19-2.33,3-2.33a6.59,6.59,0,0,1,2.53.53l-.37,1.52a5.25,5.25,0,0,0-2-.45c-.65,0-1,.21-1,.69,0,.67,1.41.92,2.51,1.59a2.13,2.13,0,0,1,1.21,2c0,1.87-1.46,2.51-3.13,2.51A5.74,5.74,0,0,1,39.81,9Z"/><path class="cls-1" d="M57.57,9.58h-2l-.23-4.9h-.06C54.62,6.19,53.45,8.52,53.2,9c-.12,0-.81.11-1,.11C51.71,8,51,6.34,50.1,4.62H50l-.17,5H47.92l.33-8.13h2.13c1.07,2,2,4.19,2.33,4.81h.07A49.31,49.31,0,0,0,55,1.45h2.2Z"/><path class="cls-1" d="M65,7.58H62.26c-.17.47-.6,1.78-.67,2H59.44c.76-2,2.51-6.38,3.26-8.13h1.89c.5,1.18,2.55,6.19,3.29,8.13H65.72ZM63.6,3.9c-.25.64-.54,1.44-.84,2.23H64.5c-.13-.37-.78-2.1-.84-2.23Z"/><path class="cls-1" d="M76.69,9.58a5.27,5.27,0,0,1-1,.12,1.56,1.56,0,0,1-1.31-.49,15.88,15.88,0,0,1-1.65-2.57H72V9.58H69.87V1.45h3c2,0,3,.82,3,2.45a2.24,2.24,0,0,1-1.29,2.19,16.18,16.18,0,0,0,1.19,1.78.88.88,0,0,0,.74.32h.14ZM72,5.14h.52c.83,0,1.34-.32,1.34-1.12s-.46-1-1.27-1H72Z"/><path class="cls-1" d="M80.54,3H78V1.45h7.13V3H82.63V9.58H80.54Z"/><path class="cls-1" d="M40,16c0-2.79,1.77-4.24,4-4.24a4.69,4.69,0,0,1,2.31.6l-.18.83a4.47,4.47,0,0,0-2-.58c-1.73,0-3,1.11-3,3.38a2.92,2.92,0,0,0,3.08,3.21,4.71,4.71,0,0,0,2.14-.51l.11.81a5,5,0,0,1-2.36.57A3.8,3.8,0,0,1,40,16Z"/><path class="cls-1" d="M47.31,15.89c0-2.22,1.2-4.12,3.76-4.12s3.78,1.91,3.78,4.1c0,2.36-1.24,4.21-3.77,4.21S47.31,18.19,47.31,15.89Zm6.47,0c0-2-1-3.28-2.73-3.28S48.37,14,48.37,15.89s.9,3.36,2.68,3.36S53.78,18,53.78,15.86Z"/><path class="cls-1" d="M62.51,20.08c-1.07-1.51-4-5.18-5.17-6.59h-.07V20h-1V11.86h.83c1.14,1.3,3.64,4.38,4.91,6.1h0v-6.1h1V20Z"/><path class="cls-1" d="M67.15,12.67H64.43v-.81h6.44v.81H68.15V20h-1Z"/><path class="cls-1" d="M78,20a2.8,2.8,0,0,1-.58.09,1,1,0,0,1-.91-.38,19.59,19.59,0,0,1-1.92-3.14H73.23V20h-1V11.86h2.13c1.69,0,2.62.77,2.62,2.26a2.08,2.08,0,0,1-1.45,2.15A17.66,17.66,0,0,0,77.18,19a.72.72,0,0,0,.68.38H78Zm-4.75-4.22H74c1.2,0,1.95-.43,1.95-1.62s-.63-1.48-1.79-1.48h-.94Z"/><path class="cls-1" d="M84.64,20c-.22-.56-.58-1.5-1-2.57H80.55c-.37,1-.74,2.09-.9,2.57H78.6c.57-1.53,2.52-6.66,3.16-8.13h.75c.61,1.53,2.58,6.61,3.17,8.13ZM82.08,13.3c-.39,1-.85,2.21-1.25,3.34h2.55c0-.09-1.24-3.31-1.25-3.34Z"/><path class="cls-1" d="M86.39,16c0-2.79,1.77-4.24,4-4.24a4.69,4.69,0,0,1,2.31.6l-.17.83a4.51,4.51,0,0,0-2-.58c-1.72,0-3,1.11-3,3.38a2.92,2.92,0,0,0,3.08,3.21,4.7,4.7,0,0,0,2.13-.51l.11.81a5,5,0,0,1-2.35.57A3.81,3.81,0,0,1,86.39,16Z"/><path class="cls-1" d="M96.54,12.67H93.82v-.81h6.44v.81H97.54V20h-1Z"/><path class="cls-1" d="M49.68,30.4h-2l-.23-4.9h-.06c-.68,1.51-1.85,3.84-2.1,4.29a9.3,9.3,0,0,1-.94.11c-.54-1.11-1.27-2.74-2.16-4.45h-.07L42,30.4H40l.34-8.13h2.12c1.08,2,2,4.2,2.33,4.81h.08a49.16,49.16,0,0,0,2.19-4.81h2.2Z"/><path class="cls-1" d="M57.11,28.41H54.38c-.17.46-.61,1.77-.67,2H51.56c.76-2,2.5-6.37,3.25-8.13h1.9c.5,1.18,2.55,6.19,3.29,8.13H57.84Zm-1.4-3.69c-.25.64-.54,1.44-.83,2.23h1.73c-.13-.37-.78-2.1-.83-2.23Z"/><path class="cls-1" d="M69.13,30.4a4.64,4.64,0,0,1-1,.12,1.71,1.71,0,0,1-1.58-.76A25.92,25.92,0,0,1,64.74,27h-.68V30.4H62V22.27h2.08v3.15h.69c.43-.58,1.11-1.74,1.94-3.15h2.25c-.71,1.26-1.83,3-2.4,3.83a14.67,14.67,0,0,0,1.73,2.6,1,1,0,0,0,.86.32Z"/><path class="cls-1" d="M71.11,22.27h5v1.55H73.21v1.79h2.14L75.17,27h-2v1.87h2.9V30.4h-5Z"/><path class="cls-1" d="M85.14,30.4a4.58,4.58,0,0,1-1,.12A1.57,1.57,0,0,1,82.81,30a16.72,16.72,0,0,1-1.64-2.57H80.4V30.4H78.31V22.27h3c2,0,3,.82,3,2.45a2.22,2.22,0,0,1-1.29,2.19,15.49,15.49,0,0,0,1.2,1.78A.87.87,0,0,0,85,29h.15ZM80.4,26h.52c.83,0,1.34-.33,1.34-1.13s-.46-1-1.27-1H80.4Z"/><path class="cls-1" d="M2,36a38.53,38.53,0,0,0,10-2.17l4.33-9.33L19,30.32a37.88,37.88,0,0,0,9.38-9L18.33,0,0,39.61H9.32l1.93-4.16A29.11,29.11,0,0,1,2,36Z"/><path class="cls-1" d="M29.51,23.77A42.49,42.49,0,0,1,19.76,32l2.55,5.5a3.67,3.67,0,0,0,3.34,2.13H37Z"/><path class="cls-1" d="M39.92,34.29h.59v2h0a1.47,1.47,0,0,1,1.07-.5c.94,0,1.41.85,1.41,1.8,0,1.22-.56,1.93-1.67,1.93a2.63,2.63,0,0,1-1.11-.23l-.1.18h-.21Zm.59,2.5v2.1a2,2,0,0,0,.79.18c.82,0,1.1-.65,1.1-1.46s-.36-1.35-.88-1.35A1.36,1.36,0,0,0,40.51,36.79Z"/><path class="cls-1" d="M44.21,41c.17-.36.4-.83.69-1.54h-.12c-.3-.88-.88-2.53-1.08-3-.07-.16-.1-.25-.31-.26v-.38h.28c.35,0,.47.12.61.49s.53,1.53.86,2.5h0c.31-.83.86-2.44,1-3h.61c-.28.88-1.43,3.93-1.94,5.16Z"/><path class="cls-1" d="M52.72,39.46l-.6-1.59H50.19c-.23.62-.45,1.29-.55,1.59H49c.36-1,1.57-4.12,2-5h.47c.37.95,1.6,4.1,2,5Zm-1.58-4.14c-.24.62-.52,1.36-.77,2.06h1.57c0-.05-.76-2-.77-2.06Z"/><path class="cls-1" d="M56,37.54c.38.59.48.76.84,1.25a.55.55,0,0,0,.46.28v.39l-.3,0c-.3,0-.42-.1-.7-.47s-.45-.67-.7-1.08h0c-.19.26-.5.74-1,1.53h-.66c.59-.92,1.09-1.61,1.29-1.9-.28-.43-.43-.67-.71-1.06-.16-.21-.3-.28-.43-.28v-.38h.25c.3,0,.42.07.69.46s.39.57.6.9h0c.1-.16.43-.63.86-1.35h.63C56.6,36.63,56.1,37.34,56,37.54Z"/><path class="cls-1" d="M60.73,39.27a2.79,2.79,0,0,1-1.17.24,1.65,1.65,0,0,1-1.79-1.81c0-1.36.72-1.92,1.63-1.92,1.06,0,1.42.66,1.42,1.53a2,2,0,0,1,0,.25H58.37v.17A1.16,1.16,0,0,0,59.63,39a3.09,3.09,0,0,0,1-.21Zm-.47-2.08c0-.71-.35-1-.84-1a1,1,0,0,0-1,1Z"/><path class="cls-1" d="M61.66,34.29h.59v5.17h-.59Z"/><path class="cls-1" d="M66.09,39.27a2.79,2.79,0,0,1-1.17.24,1.66,1.66,0,0,1-1.8-1.81c0-1.36.73-1.92,1.64-1.92s1.42.66,1.42,1.53a2,2,0,0,1,0,.25H63.73v.17A1.16,1.16,0,0,0,65,39a3,3,0,0,0,1-.21Zm-.48-2.08c0-.71-.34-1-.83-1a1,1,0,0,0-1,1Z"/><path class="cls-1" d="M67,39.46V35.84h.46l.1.5h0a1.51,1.51,0,0,1,.95-.56A.47.47,0,0,1,69,36l-.14.44a.66.66,0,0,0-.32-.08,1.64,1.64,0,0,0-.89.52v2.57Z"/><path class="cls-1" d="M72.66,39.38a1.33,1.33,0,0,1-.52.13c-.32,0-.47-.17-.52-.48h0a1.7,1.7,0,0,1-1.13.49,1.05,1.05,0,0,1-1.09-1.06c0-.5.3-.7.84-.84l1.39-.33V37c0-.5-.19-.77-.78-.77a2.51,2.51,0,0,0-1.14.33l-.13-.41a2.72,2.72,0,0,1,1.29-.38c.75,0,1.35.24,1.35,1.27v1.74c0,.14,0,.26.2.26h.24Zm-2-.32a1.43,1.43,0,0,0,1-.5v-.91c-.39.07-.87.2-1.15.28s-.47.16-.47.49A.61.61,0,0,0,70.62,39.06Z"/><path class="cls-1" d="M73,35.84h.58l.13-.84h.46v.84h1.12l-.06.44H74.12v2.2c0,.32.1.53.47.53a1.85,1.85,0,0,0,.71-.16l.08.45a2.28,2.28,0,0,1-.92.21c-.69,0-.93-.38-.93-1V36.28H73Z"/><path class="cls-1" d="M79,39.46h-.43L78.45,39l0,0a1.7,1.7,0,0,1-1.15.5,1.2,1.2,0,0,1-1.2-1.32V35.84h.59v2.24c0,.57.29,1,.76,1a1.58,1.58,0,0,0,1-.5V35.84H79Z"/><path class="cls-1" d="M80,35.84h.47l.08.47h0a1.63,1.63,0,0,1,1.18-.54,1,1,0,0,1,1,.56h0a1.87,1.87,0,0,1,1.26-.56c.83,0,1.17.56,1.17,1.37v2.31h-.6V37.21c0-.62-.22-.94-.69-.94a1.36,1.36,0,0,0-1,.5v2.69h-.59V37.21c0-.62-.23-.94-.7-.94a1.45,1.45,0,0,0-1,.55v2.64H80Z"/></g></g></svg>