<svg xmlns="http://www.w3.org/2000/svg" viewBox="0 0 18.86 18.87"><defs><style>.cls-1{fill:#21a5ce;}</style></defs><title>ico_edit</title><g id="Capa_2" data-name="Capa 2"><g id="Capa_2-2" data-name="Capa 2"><path class="cls-1" d="M17,16.18a1.62,1.62,0,0,1-1.6,1.62H2.66a1.62,1.62,0,0,1-1.6-1.62V3.4a1.58,1.58,0,0,1,1.6-1.57h7.46V.77H2.66A2.63,2.63,0,0,0,0,3.4V16.18a2.68,2.68,0,0,0,2.66,2.69H15.44a2.68,2.68,0,0,0,2.66-2.69V8.75H17v7.43Z"/><path class="cls-1" d="M18.24.6a2.19,2.19,0,0,0-3,0L8.08,7.75A.53.53,0,0,0,7.94,8l-.75,3a.55.55,0,0,0,.14.51.55.55,0,0,0,.38.16l.13,0,3-.75a.62.62,0,0,0,.25-.14l7.14-7.15a2.1,2.1,0,0,0,.62-1.5A2.14,2.14,0,0,0,18.24.6ZM10.45,9.9l-2,.5.5-2,5.91-5.9L16.36,4Zm7-7-.38.38L15.6,1.73,16,1.36a1.08,1.08,0,0,1,1.51,0,1,1,0,0,1,.31.75A1.06,1.06,0,0,1,17.49,2.86Z"/></g></g></svg>