<svg xmlns="http://www.w3.org/2000/svg" viewBox="0 0 56.66 56.66"><defs><style>.cls-1{fill:#b3b7b6;}.cls-2{fill:none;stroke:#fff;stroke-miterlimit:10;stroke-width:2px;}.cls-3{fill:#fff;}</style></defs><title>ico-activo-off</title><g id="Layer_2" data-name="Layer 2"><g id="Layer_1-2" data-name="Layer 1"><circle class="cls-1" cx="28.33" cy="28.33" r="28.33"/><path class="cls-2" d="M35.33,31.16a.24.24,0,0,1,.45,0l2.66,4.3a1.1,1.1,0,0,0,.61.45l4.67,1.35a.28.28,0,0,1,.16.45l-3.07,4a1.44,1.44,0,0,0-.25.74l.25,5.16a.25.25,0,0,1-.37.25L35.9,46a1.26,1.26,0,0,0-.78,0l-4.55,1.84a.25.25,0,0,1-.37-.25l.25-5.16a1.23,1.23,0,0,0-.25-.74l-3.07-4a.27.27,0,0,1,.16-.45L32,36a1.34,1.34,0,0,0,.61-.45Z"/><path class="cls-3" d="M24.59,43.41H14.18a1.62,1.62,0,0,1-1.48-1.8V13.41a1.47,1.47,0,0,1,1.48-1.56H37.83a1.47,1.47,0,0,1,1.52,1.56V28.66a.82.82,0,0,1-1.64,0V13.5H14.35V41.61c0,.08,0,.12,0,.16h10.2a.82.82,0,0,1,0,1.64Z"/><path class="cls-3" d="M33.2,20.87H18.85a.82.82,0,1,1,0-1.64H33.2a.82.82,0,0,1,0,1.64Z"/><path class="cls-3" d="M33.2,25.79H18.85a.82.82,0,1,1,0-1.64H33.2a.82.82,0,0,1,0,1.64Z"/><path class="cls-3" d="M30.33,30.71H18.85a.82.82,0,1,1,0-1.64H30.33a.82.82,0,0,1,0,1.64Z"/></g></g></svg>