<svg xmlns="http://www.w3.org/2000/svg" viewBox="0 0 56.66 56.66"><defs><style>.cls-1{fill:#119aba;}.cls-2{fill:#fff;}</style></defs><title>ico-borrador</title><g id="Layer_2" data-name="Layer 2"><g id="Layer_1-2" data-name="Layer 1"><circle class="cls-1" cx="28.33" cy="28.33" r="28.33"/><path class="cls-2" d="M29.22,13.51a.66.66,0,0,0-.7.7V45.5a.66.66,0,0,0,.7.7h9.46a.66.66,0,0,0,.7-.7V14.21a.66.66,0,0,0-.7-.7ZM38,44.8H29.92V40.7h5.7a.7.7,0,0,0,0-1.39h-5.7V33.88H33.6a.7.7,0,1,0,0-1.39H30V27.07h5.7a.7.7,0,1,0,0-1.39H30V20.26H33.6a.7.7,0,0,0,0-1.39H30v-4h8.07V44.8Z"/><path class="cls-2" d="M20,13.23,16.85,20a.52.52,0,0,0-.07.35V42.3a3.89,3.89,0,0,0,7.79,0V20.39c0-.14-.07-.21-.07-.35l-3.13-6.81C21,12.68,20.19,12.68,20,13.23ZM20.6,44.8A2.46,2.46,0,0,1,18.24,43H23A2.46,2.46,0,0,1,20.6,44.8ZM23,41.6H18.1V21.09H23ZM18.52,19.7l2.09-4.52,2.09,4.52Z"/></g></g></svg>