<svg xmlns="http://www.w3.org/2000/svg" viewBox="0 0 14.77 19.77"><defs><style>.cls-1{fill:#59666e;}</style></defs><title>ico-catalogo-datos</title><g id="Capa_2" data-name="Capa 2"><g id="Capa_2-2" data-name="Capa 2"><path class="cls-1" d="M14.22.25H3.68a.27.27,0,0,0-.21.09L.34,3.47a.27.27,0,0,0-.09.21V19.22a.28.28,0,0,0,.3.3H14.22a.28.28,0,0,0,.3-.3V.55A.28.28,0,0,0,14.22.25Zm-10.84,1V3.38H1.27ZM13.92,18.92H.85V4H3.68a.28.28,0,0,0,.3-.3V.85h9.94Z"/><path class="cls-1" d="M14.22,19.77H.55A.53.53,0,0,1,0,19.22V3.68a.54.54,0,0,1,.16-.39L3.29.16A.54.54,0,0,1,3.68,0H14.22a.53.53,0,0,1,.55.55V19.22A.53.53,0,0,1,14.22,19.77ZM3.68.5.52,3.65l0,15.57s0,.05.05.05H14.22s0,0,0-.05V.55s0-.05,0-.05ZM13.92,19.17H.85L.6,18.92V4l.25-.25H3.68s0,0,0,0V.85L4,.6h9.94l.25.25V18.92ZM1.1,18.67H13.67V1.1H4.23V3.68a.53.53,0,0,1-.55.55H1.1Zm2.28-15H1.27L1.1,3.21,3.2,1.1l.43.17V3.38Zm-1.5-.5H3.13V1.88Z"/><path class="cls-1" d="M2.09,6a.3.3,0,0,0,0,.6H4.53a.3.3,0,0,0,0-.6Z"/><path class="cls-1" d="M4.53,6.82H2.09a.55.55,0,0,1,0-1.1H4.53a.55.55,0,0,1,0,1.1Zm-2.44-.6s0,0,0,0,0,.05,0,.05H4.53s0,0,0-.05,0,0,0,0Z"/><path class="cls-1" d="M6,6.57H8.41a.3.3,0,0,0,0-.6H6a.3.3,0,0,0,0,.6Z"/><path class="cls-1" d="M8.41,6.82H6a.55.55,0,0,1,0-1.1H8.41a.55.55,0,0,1,0,1.1ZM6,6.22s0,0,0,0,0,.05,0,.05H8.41s.05,0,.05-.05,0,0-.05,0Z"/><path class="cls-1" d="M4.53,9H2.09a.3.3,0,0,0,0,.6H4.53a.28.28,0,0,0,.3-.3A.32.32,0,0,0,4.53,9Z"/><path class="cls-1" d="M4.53,9.89H2.09a.55.55,0,1,1,0-1.1H4.53a.58.58,0,0,1,.55.55A.54.54,0,0,1,4.53,9.89Zm-2.44-.6s0,0,0,.05,0,.05,0,.05H4.53s0,0,0-.05l-.06-.05Zm2.44,0Z"/><path class="cls-1" d="M6,9.64H8.41a.3.3,0,0,0,0-.6H6a.3.3,0,0,0,0,.6Z"/><path class="cls-1" d="M8.41,9.89H6a.55.55,0,0,1,0-1.1H8.41a.55.55,0,0,1,0,1.1ZM6,9.29s0,0,0,.05,0,.05,0,.05H8.41s.05,0,.05-.05,0-.05-.05-.05Z"/><path class="cls-1" d="M4.53,12.11H2.09a.31.31,0,0,0,0,.61H4.53a.29.29,0,0,0,.3-.31A.3.3,0,0,0,4.53,12.11Z"/><path class="cls-1" d="M4.53,13H2.09a.56.56,0,0,1,0-1.11H4.53a.55.55,0,0,1,.55.55A.54.54,0,0,1,4.53,13Zm-2.44-.61s0,0,0,.05,0,.06,0,.06H4.53s0,0,0-.06,0-.05,0-.05Z"/><path class="cls-1" d="M6,12.72H8.41a.31.31,0,0,0,0-.61H6a.28.28,0,0,0-.3.3A.3.3,0,0,0,6,12.72Z"/><path class="cls-1" d="M8.41,13H6a.56.56,0,0,1-.55-.56A.54.54,0,0,1,6,11.86H8.41a.56.56,0,0,1,0,1.11ZM6,12.36s0,0,0,.05,0,.06,0,.06H8.41s.05,0,.05-.06,0-.05-.05-.05Z"/><path class="cls-1" d="M4.53,15.15H2.09a.31.31,0,0,0,0,.61H4.53a.28.28,0,0,0,.3-.3A.33.33,0,0,0,4.53,15.15Z"/><path class="cls-1" d="M4.53,16H2.09a.56.56,0,0,1,0-1.11H4.53a.59.59,0,0,1,.55.56A.54.54,0,0,1,4.53,16ZM2.09,15.4s0,0,0,.06,0,0,0,0H4.53s0,0,0,0a.17.17,0,0,0-.06-.06Zm2.44,0Z"/><path class="cls-1" d="M6,15.76H8.41a.31.31,0,0,0,0-.61H6a.31.31,0,0,0,0,.61Z"/><path class="cls-1" d="M8.41,16H6A.56.56,0,0,1,6,14.9H8.41a.56.56,0,0,1,0,1.11ZM6,15.4s0,0,0,.06,0,0,0,0H8.41s.05,0,.05,0,0-.06-.05-.06Z"/><path class="cls-1" d="M10.46,7.24a.3.3,0,0,0,.48.12l2-1.66a.29.29,0,0,0,0-.42.3.3,0,0,0-.43,0L10.88,6.63,10.64,6a.3.3,0,0,0-.57.21Z"/><path class="cls-1" d="M10.75,7.68h-.13a.57.57,0,0,1-.4-.35L9.83,6.27a.53.53,0,0,1,0-.41.6.6,0,0,1,.31-.3.53.53,0,0,1,.41,0,.59.59,0,0,1,.31.31l.12.33,1.35-1.15a.53.53,0,0,1,.76,0,.54.54,0,0,1,0,.78l-2,1.67A.5.5,0,0,1,10.75,7.68Zm-.06-.52h.09l2-1.66a.08.08,0,0,0,0,0,.08.08,0,0,0-.06,0L11,6.82l-.4-.1-.24-.66-.06,0,0,.07Z"/><path class="cls-1" d="M10.46,13.35a.3.3,0,0,0,.48.12l2-1.66a.29.29,0,0,0,0-.42.3.3,0,0,0-.43,0l-1.62,1.39-.24-.64a.31.31,0,0,0-.39-.18.29.29,0,0,0-.15.39Z"/><path class="cls-1" d="M10.75,13.79h-.13a.57.57,0,0,1-.4-.35l-.36-1a.55.55,0,0,1,.29-.71.57.57,0,0,1,.72.32l.12.31,1.35-1.16a.53.53,0,0,1,.76,0,.54.54,0,0,1,0,.78l-2,1.67A.5.5,0,0,1,10.75,13.79Zm-.06-.52h.09l2-1.66a.06.06,0,0,0,0,0s-.06,0-.06,0L11,12.94l-.39-.11-.25-.63s-.05,0-.06,0,0,0,0,.08Z"/><path class="cls-1" d="M12.66,8.23a.3.3,0,0,0-.43,0l-.69.69-.69-.69a.3.3,0,0,0-.42.42l.69.69-.69.7a.3.3,0,0,0,.42.42l.69-.7.69.7a.3.3,0,0,0,.43,0,.29.29,0,0,0,0-.42l-.7-.7.7-.69A.29.29,0,0,0,12.66,8.23Z"/><path class="cls-1" d="M10.64,10.8a.56.56,0,0,1-.39-.17.53.53,0,0,1,0-.77l.52-.52-.52-.51a.56.56,0,0,1,0-.78.56.56,0,0,1,.78,0l.51.52.52-.52a.55.55,0,0,1,.77,0h0a.53.53,0,0,1,0,.78l-.51.51.51.52a.54.54,0,1,1-.77.77l-.52-.51-.51.51A.56.56,0,0,1,10.64,10.8Zm0-2.39H10.6a.06.06,0,0,0,0,.06l.7.7v.35l-.7.69s0,0,0,.07.05,0,.07,0l.69-.69h.36l.69.69a0,0,0,0,0,.07,0s0,0,0-.07l-.69-.69V9.17l.69-.7a.06.06,0,0,0,0-.06h0l0,0-.72.71h-.36Z"/><path class="cls-1" d="M12.63,14.49h-2.2a.28.28,0,0,0-.3.3v1.36a.28.28,0,0,0,.3.3h2.2a.28.28,0,0,0,.3-.3V14.79A.28.28,0,0,0,12.63,14.49Zm-.31,1.36H10.73v-.76h1.59Z"/><path class="cls-1" d="M12.63,16.7h-2.2a.53.53,0,0,1-.55-.55V14.79a.53.53,0,0,1,.55-.55h2.2a.54.54,0,0,1,.55.55v1.36A.54.54,0,0,1,12.63,16.7Zm-2.2-2s0,0,0,0v1.36s0,.05,0,.05h2.2s0,0,0-.05V14.79s0,0,0,0Zm1.89,1.36H10.73l-.25-.25v-.76l.25-.25h1.59l.25.25v.76ZM11,15.6h1.09v-.26H11Z"/></g></g></svg>