<svg xmlns="http://www.w3.org/2000/svg" viewBox="0 0 25.15 25.15"><defs><style>.cls-1{fill:#25cc7c;}</style></defs><title>ico-ver-alarma</title><g id="Capa_2" data-name="Capa 2"><g id="Capa_2-2" data-name="Capa 2"><path class="cls-1" d="M23.89,16.76C23.2,16.47,21,15.3,21,13.41V10.9a8.38,8.38,0,0,0-5.86-8V2.51a2.52,2.52,0,0,0-5,0V2.9a8.39,8.39,0,0,0-5.87,8v2.51c0,1.89-2.24,3.06-2.93,3.35A1.78,1.78,0,0,0,0,18.44a1.68,1.68,0,0,0,1.68,1.68H23.47a1.68,1.68,0,0,0,1.68-1.68A1.8,1.8,0,0,0,23.89,16.76ZM12.57,25.15a5,5,0,0,0,4.74-3.36H7.84A5,5,0,0,0,12.57,25.15Z"/></g></g></svg>