<svg xmlns="http://www.w3.org/2000/svg" viewBox="0 0 56.66 56.66"><defs><style>.cls-1{fill:#1565b5;}.cls-2{fill:#fff;}</style></defs><title>ico-firma</title><g id="Layer_2" data-name="Layer 2"><g id="Layer_1-2" data-name="Layer 1"><circle class="cls-1" cx="28.33" cy="28.33" r="28.33"/><path class="cls-2" d="M36.81,44.23h-17A3.18,3.18,0,0,1,16.67,41V15.61a3.18,3.18,0,0,1,3.18-3.18H30.63a3.16,3.16,0,0,1,2.25.93l6.18,6.18A3.16,3.16,0,0,1,40,21.79V41A3.18,3.18,0,0,1,36.81,44.23Zm-17-29.68a1.06,1.06,0,0,0-1.06,1.06V41a1.06,1.06,0,0,0,1.06,1.06h17A1.06,1.06,0,0,0,37.87,41V21.79a1.05,1.05,0,0,0-.31-.75l-6.18-6.18a1.05,1.05,0,0,0-.75-.31Z"/><path class="cls-2" d="M32.22,27.38a.33.33,0,0,0-.1-.46h0l-2.81-1.83a.33.33,0,0,0-.46.1h0L23,34.12a.33.33,0,0,0,0,.14h0l-.39,3.67a.33.33,0,0,0,.5.32l3.2-1.85h0a.33.33,0,0,0,.1-.1Zm-.74-.08L26,35.67l-2.25-1.46,5.45-8.37ZM23.33,37.36l.26-2.48,1.9,1.24Z"/></g></g></svg>