<svg xmlns="http://www.w3.org/2000/svg" viewBox="0 0 56.66 56.66"><defs><style>.cls-1{fill:#b3b7b6;}.cls-2{fill:#fff;}</style></defs><title>ico-aprobado-off</title><g id="Layer_2" data-name="Layer 2"><g id="Layer_1-2" data-name="Layer 1"><circle class="cls-1" cx="28.33" cy="28.33" r="28.33"/><path class="cls-2" d="M28.12,38.83a3.17,3.17,0,0,1-2.24-.93l-1.7-1.7a1.06,1.06,0,0,1,1.5-1.5l1.7,1.7.12.1a1.06,1.06,0,0,0,1.44-.17l3.53-6.68a1.06,1.06,0,1,1,1.87,1L30.77,37.4l-.08.13A3.18,3.18,0,0,1,28.12,38.83Z"/><path class="cls-2" d="M39.24,23.26H33.41a3.18,3.18,0,0,1-3.18-3.18V14.25a1.06,1.06,0,0,1,2.12,0v5.83a1.06,1.06,0,0,0,1.06,1.06h5.83a1.06,1.06,0,0,1,0,2.12Z"/><path class="cls-2" d="M37.65,44.46h-17a3.18,3.18,0,0,1-3.18-3.18V15.84a3.18,3.18,0,0,1,3.18-3.18H31.47a3.16,3.16,0,0,1,2.25.93l6.18,6.18A3.16,3.16,0,0,1,40.83,22V41.28A3.18,3.18,0,0,1,37.65,44.46Zm-17-29.68a1.06,1.06,0,0,0-1.06,1.06V41.28a1.06,1.06,0,0,0,1.06,1.06h17a1.06,1.06,0,0,0,1.06-1.06V22a1.05,1.05,0,0,0-.31-.75l-6.18-6.18a1.05,1.05,0,0,0-.75-.31Z"/></g></g></svg>