<svg xmlns="http://www.w3.org/2000/svg" viewBox="0 0 19.82 19.7"><defs><style>.cls-1{fill:#21a5ce;}</style></defs><title>ico-ver</title><g id="Capa_2" data-name="Capa 2"><g id="Capa_2-2" data-name="Capa 2"><path class="cls-1" d="M15.79,9.65a.75.75,0,0,1-.74-.74V2.22c0-.72,0-.76-.74-.76H2.22a.71.71,0,0,0-.72.72V17.54c0,.61.09.7.7.7H14.25A.73.73,0,0,1,15,19h0a.75.75,0,0,1-.74.74H2.11a1.87,1.87,0,0,1-2-1.44,3,3,0,0,1,0-.67C0,12.5,0,7.38,0,2.29A2.28,2.28,0,0,1,.67.45,1.83,1.83,0,0,1,1.93,0H14.65a2,2,0,0,1,1.28.47,2.42,2.42,0,0,1,.65,1.89c0,2.35,0,4.26,0,6.52a.76.76,0,0,1-.77.77Z"/><path class="cls-1" d="M19.56,19.45h0a.85.85,0,0,1-1.21,0c-1-1-2-2-2.87-2.89a12.08,12.08,0,0,1-1.93.29A3.25,3.25,0,1,1,16.89,13a3,3,0,0,1-.22,1.95.39.39,0,0,0,.09.52c.94.92,1.86,1.86,2.8,2.78A.87.87,0,0,1,19.56,19.45Zm-5.87-3.92a1.91,1.91,0,1,0,.06-3.82A1.93,1.93,0,0,0,11.8,13.6,1.86,1.86,0,0,0,13.69,15.53Z"/><path class="cls-1" d="M12,8.59v1.46H2.85V8.59Z"/><path class="cls-1" d="M2.83,5.83V4.37H12V5.83Z"/></g></g></svg>