<svg xmlns="http://www.w3.org/2000/svg" viewBox="0 0 29.48 26"><defs><style>.cls-1{fill:#cc5f23;}</style></defs><title>ico-trazabilidad</title><g id="Layer_2" data-name="Layer 2"><g id="Layer_1-2" data-name="Layer 1"><path class="cls-1" d="M6.82,13.87h4.56a3.46,3.46,0,0,0,6.7,0h4.56a3.46,3.46,0,1,0,4.22-4.22V6.82A3.46,3.46,0,1,0,22.65,2.6H18.09a3.46,3.46,0,0,0-6.7,0H6.82a3.47,3.47,0,1,0,0,1.73h4.56a3.46,3.46,0,0,0,6.7,0h4.56a3.47,3.47,0,0,0,2.49,2.49V9.65a3.47,3.47,0,0,0-2.49,2.49H18.09a3.46,3.46,0,0,0-6.7,0H6.82A3.46,3.46,0,1,0,2.6,16.35v2.83A3.46,3.46,0,1,0,6.82,23.4h4.56a3.46,3.46,0,0,0,6.7,0h4.56a3.47,3.47,0,1,0,0-1.73H18.09a3.46,3.46,0,0,0-6.7,0H6.82a3.47,3.47,0,0,0-2.49-2.49V16.35A3.47,3.47,0,0,0,6.82,13.87ZM3.47,5.2A1.73,1.73,0,1,1,5.2,3.47,1.73,1.73,0,0,1,3.47,5.2Zm11.27,0a1.73,1.73,0,1,1,1.73-1.73A1.73,1.73,0,0,1,14.74,5.2Zm9.53-1.73A1.73,1.73,0,1,1,26,5.2,1.73,1.73,0,0,1,24.27,3.47ZM26,11.27A1.73,1.73,0,1,1,24.27,13,1.73,1.73,0,0,1,26,11.27Zm-11.27,0A1.73,1.73,0,1,1,13,13,1.73,1.73,0,0,1,14.74,11.27ZM26,20.8a1.73,1.73,0,1,1-1.73,1.73A1.73,1.73,0,0,1,26,20.8Zm-11.27,0A1.73,1.73,0,1,1,13,22.53,1.73,1.73,0,0,1,14.74,20.8ZM1.74,13a1.73,1.73,0,1,1,1.73,1.73A1.73,1.73,0,0,1,1.74,13ZM5.2,22.53A1.73,1.73,0,1,1,3.47,20.8,1.73,1.73,0,0,1,5.2,22.53Z"/></g></g></svg>