<svg xmlns="http://www.w3.org/2000/svg" viewBox="0 0 56.66 56.66"><defs><style>.cls-1{fill:#b5b515;}.cls-2{fill:#fff;}</style></defs><title>ico-revision</title><g id="Layer_2" data-name="Layer 2"><g id="Layer_1-2" data-name="Layer 1"><circle class="cls-1" cx="28.33" cy="28.33" r="28.33"/><path class="cls-2" d="M40.08,23H34.25a3.18,3.18,0,0,1-3.18-3.18V14a1.06,1.06,0,0,1,2.12,0v5.83a1.06,1.06,0,0,0,1.06,1.06h5.83a1.06,1.06,0,1,1,0,2.12Z"/><path class="cls-2" d="M38.49,44.23h-17A3.18,3.18,0,0,1,18.35,41V15.61a3.18,3.18,0,0,1,3.18-3.18H32.31a3.16,3.16,0,0,1,2.25.93l6.18,6.18a3.16,3.16,0,0,1,.93,2.25V41A3.18,3.18,0,0,1,38.49,44.23Zm-17-29.68a1.06,1.06,0,0,0-1.06,1.06V41a1.06,1.06,0,0,0,1.06,1.06h17A1.06,1.06,0,0,0,39.55,41V21.79a1.05,1.05,0,0,0-.31-.75l-6.18-6.18a1.05,1.05,0,0,0-.75-.31Z"/><path class="cls-2" d="M35.28,37.5,32.7,34.93a4.83,4.83,0,1,0-1.25,1l2.71,2.71a.78.78,0,0,0,1.11-1.11Zm-6-2.58a3.14,3.14,0,1,1,3.14-3.14A3.14,3.14,0,0,1,29.23,34.92Z"/></g></g></svg>