<svg xmlns="http://www.w3.org/2000/svg" viewBox="0 0 19.79 23.75"><defs><style>.cls-1{fill:#cc9823;}</style></defs><title>ico-clonar</title><g id="Capa_2" data-name="Capa 2"><g id="Capa_2-2" data-name="Capa 2"><path class="cls-1" d="M5.64,4A1.69,1.69,0,0,0,4,5.64V22.06a1.7,1.7,0,0,0,1.68,1.69H18.11a1.7,1.7,0,0,0,1.68-1.69V5.64A1.69,1.69,0,0,0,18.11,4Zm0,1.28H18.11a.38.38,0,0,1,.39.4V22.06a.38.38,0,0,1-.39.4H5.64a.38.38,0,0,1-.4-.4V5.64A.39.39,0,0,1,5.64,5.24Z"/><path class="cls-1" d="M1.68,0A1.69,1.69,0,0,0,0,1.69V18.11a1.69,1.69,0,0,0,1.68,1.68H3.3V18.51H1.68a.39.39,0,0,1-.4-.4V1.69a.39.39,0,0,1,.4-.41H14.15a.39.39,0,0,1,.4.41V3.3h1.28V1.69A1.69,1.69,0,0,0,14.15,0Z"/></g></g></svg>