<svg xmlns="http://www.w3.org/2000/svg" viewBox="0 0 20.86 20.82"><defs><style>.cls-1{fill:#fad733;}</style></defs><title>ico-history</title><g id="Capa_2" data-name="Capa 2"><g id="Capa_2-2" data-name="Capa 2"><path class="cls-1" d="M17.81,3.05A10.42,10.42,0,0,0,3.45,2.69L2.35,1.6a.64.64,0,0,0-1.08.3L0,7a.67.67,0,0,0,.79.8L6,6.58a.64.64,0,0,0,.31-1.07L5.05,4.3a8.19,8.19,0,0,1,11.18,12l-.31.29a1.12,1.12,0,0,0,.75,2,1.08,1.08,0,0,0,.75-.28,2.67,2.67,0,0,0,.37-.38A10.48,10.48,0,0,0,17.81,3.05Z"/><path class="cls-1" d="M13,18.25l-.42.13a1.13,1.13,0,0,0,.29,2.22,1.26,1.26,0,0,0,.28,0l.53-.16a1.1,1.1,0,0,0,.7-1.4A1.06,1.06,0,0,0,13,18.25Z"/><path class="cls-1" d="M9.2,18.58l-.44-.07a1.12,1.12,0,1,0-.44,2.2c.18,0,.38.07.55.09l.18,0a1.1,1.1,0,0,0,1.1-1A1.13,1.13,0,0,0,9.2,18.58Z"/><path class="cls-1" d="M5.33,16.91a1.15,1.15,0,0,0-1.58.17,1.16,1.16,0,0,0,.18,1.59c.15.11.28.22.44.33a1.16,1.16,0,0,0,.64.19,1.08,1.08,0,0,0,.92-.48,1.12,1.12,0,0,0-.27-1.56Z"/><path class="cls-1" d="M3,13.94a1.13,1.13,0,1,0-2,1c.09.17.15.33.24.5a1.12,1.12,0,0,0,1,.6,1.2,1.2,0,0,0,.53-.14,1.12,1.12,0,0,0,.46-1.51Z"/><path class="cls-1" d="M14.1,11.46,11.53,9.81V5.73a1.12,1.12,0,1,0-2.24,0v4.7a1.12,1.12,0,0,0,.53.94l3.07,2a1.19,1.19,0,0,0,.6.17,1.09,1.09,0,0,0,.94-.52A1.1,1.1,0,0,0,14.1,11.46Z"/></g></g></svg>