<svg xmlns="http://www.w3.org/2000/svg" viewBox="0 0 22.06 18.95"><defs><style>.cls-1{fill:#25c34d;}</style></defs><title>ico_save</title><g id="Capa_2" data-name="Capa 2"><g id="Capa_1-2" data-name="Capa 1"><path class="cls-1" d="M21.17,0a.82.82,0,0,0-.58.28c-3,3.15-7.91,8.54-11.08,11.88L5.32,9a.85.85,0,0,0-1,1.34h0L9.1,14a.84.84,0,0,0,1.12-.09c3.16-3.31,8.47-9.17,11.59-12.44a.84.84,0,0,0,0-1.2A.87.87,0,0,0,21.17,0ZM.85,1.42A.85.85,0,0,0,0,2.27V18.1A.85.85,0,0,0,.85,19H16.68a.85.85,0,0,0,.85-.85V9.62a.85.85,0,1,0-1.7,0v7.66H1.7V3.12H15a.85.85,0,0,0,0-1.7H.85Z"/></g></g></svg>