<svg xmlns="http://www.w3.org/2000/svg" viewBox="0 0 21.99 22"><defs><style>.cls-1{fill:#838d93;}</style></defs><title>ico_correo</title><g id="Capa_2" data-name="Capa 2"><g id="Capa_2-2" data-name="Capa 2"><path class="cls-1" d="M18.67,3.12a10.85,10.85,0,0,0-8-3.11A11.12,11.12,0,0,0,0,10.69,11,11,0,0,0,11,22a1.1,1.1,0,1,0,0-2.2,8.81,8.81,0,0,1-8.8-9,8.89,8.89,0,0,1,8.54-8.54A9.5,9.5,0,0,1,17.13,4.7c2.81,2.36,2.66,6.86,2.66,6.86a1.65,1.65,0,1,1-3.3,0S17,5.77,11,5.51A5.4,5.4,0,0,0,5.49,11a5.48,5.48,0,0,0,9.91,3.25A3.85,3.85,0,0,0,22,11.56V11A10.82,10.82,0,0,0,18.67,3.12ZM11,14.3A3.3,3.3,0,1,1,14.3,11,3.3,3.3,0,0,1,11,14.3Z"/></g></g></svg>