<svg xmlns="http://www.w3.org/2000/svg" viewBox="0 0 17.93 22.48"><defs><style>.cls-1{fill:#838d93;}</style></defs><title>ico_contra</title><g id="Capa_2" data-name="Capa 2"><g id="Capa_2-2" data-name="Capa 2"><path class="cls-1" d="M14.07,7.91V5.09a5.09,5.09,0,0,0-10.18,0V7.91a4,4,0,0,0-3.89,4v6.65a4,4,0,0,0,4,4H14a4,4,0,0,0,3.95-4V11.87A3.92,3.92,0,0,0,14.07,7.91ZM9,2.32a2.78,2.78,0,0,1,2.77,2.77V7.91H6.21V5.09A2.79,2.79,0,0,1,9,2.32Zm6.65,16.23A1.63,1.63,0,0,1,14,20.18H4a1.64,1.64,0,0,1-1.64-1.63V11.87A1.65,1.65,0,0,1,4,10.23H14a1.64,1.64,0,0,1,1.63,1.64v6.68Z"/></g></g></svg>