<svg xmlns="http://www.w3.org/2000/svg" viewBox="0 0 13.67 15"><defs><style>.cls-1{fill:#59666e;}</style></defs><title>ico_save_contract</title><g id="Capa_2" data-name="Capa 2"><g id="Capa_2-2" data-name="Capa 2"><path class="cls-1" d="M13.18,3.44,10.23.49A1.65,1.65,0,0,0,9,0H1.22A1.22,1.22,0,0,0,0,1.22V13.78A1.22,1.22,0,0,0,1.22,15H12.46a1.21,1.21,0,0,0,1.21-1.22V4.64A1.72,1.72,0,0,0,13.18,3.44ZM3.41,1H7V3H3.41Zm9.28,12.8a.24.24,0,0,1-.23.24H1.22A.23.23,0,0,1,1,13.78V1.22A.24.24,0,0,1,1.22,1H2.43V3.46A.49.49,0,0,0,2.92,4H7.5A.49.49,0,0,0,8,3.46V1H9a.82.82,0,0,1,.51.2l3,3a.68.68,0,0,1,.2.5Z"/><path class="cls-1" d="M6.84,5.75A3.19,3.19,0,1,0,10,8.94,3.19,3.19,0,0,0,6.84,5.75Zm0,5.38A2.21,2.21,0,1,1,9.05,8.92,2.21,2.21,0,0,1,6.84,11.13Z"/></g></g></svg>