<svg xmlns="http://www.w3.org/2000/svg" viewBox="0 0 17.04 21.67"><defs><style>.cls-1{fill:#51c6ea;}</style></defs><title>ico_doc</title><g id="Capa_2" data-name="Capa 2"><g id="Capa_1-2" data-name="Capa 1"><path class="cls-1" d="M16.42,7.07A.61.61,0,0,0,17,6.46V5.38A.62.62,0,0,0,16.88,5L12.65.21A.57.57,0,0,0,12.2,0H.61A.61.61,0,0,0,0,.61V21.05a.61.61,0,0,0,.61.62H16.42a.62.62,0,0,0,.62-.62V8.38a.62.62,0,0,0-1.23,0V20.44H1.23V1.23H11.57V5.41a.61.61,0,0,0,.62.61h3.62v.44A.61.61,0,0,0,16.42,7.07ZM12.8,4.8V2.22L15.09,4.8Zm.2,5H4a.62.62,0,0,0,0,1.23h9a.62.62,0,1,0,0-1.23Zm0,3.31H4a.62.62,0,0,0-.61.62.61.61,0,0,0,.61.61h9a.61.61,0,0,0,.62-.61A.62.62,0,0,0,13,13.14Zm0,3.32H4a.61.61,0,0,0,0,1.22h9a.61.61,0,1,0,0-1.22Z"/></g></g></svg>