<svg xmlns="http://www.w3.org/2000/svg" viewBox="0 0 20 20.21"><defs><style>.cls-1{fill:#59666e;}</style></defs><title>ico_contract</title><g id="Capa_2" data-name="Capa 2"><g id="Capa_2-2" data-name="Capa 2"><path class="cls-1" d="M20,7,16.81,2,7.32,0l-.7,3.26H0v17H13.89V18.74l3.43.75ZM16.72,3.87,18.3,6.32l-2-.45ZM12.83,19.15H1V4.3H9V8.19h3.85v11ZM10,7.13V5.06l2.07,2.07Zm3.85,10.55v-2l1,.23.22-1-1.28-.27v-2l1.68.36.21-1-1.89-.41v-2l2.32.51.21-1-2.53-.55v-1L9.68,3.32h-2l.43-2L15.83,3,15,6.72l3.77.81L16.47,18.26Z"/><rect class="cls-1" x="3.09" y="16.15" width="7.7" height="1.06"/><rect class="cls-1" x="3.09" y="13.15" width="7.7" height="1.06"/><rect class="cls-1" x="3.09" y="10.13" width="7.7" height="1.06"/></g></g></svg>