<svg xmlns="http://www.w3.org/2000/svg" viewBox="0 0 15.21 16.51"><defs><style>.cls-1{fill:#59666e;}</style></defs><title>ico_update</title><g id="Capa_2" data-name="Capa 2"><g id="Capa_2-2" data-name="Capa 2"><path class="cls-1" d="M11.63,9a4,4,0,1,0-4,4A4,4,0,0,0,11.63,9Zm-2.2-.39L7.76,10.25a.63.63,0,0,1-.43.19.65.65,0,0,1-.44-.19l-1-1a.63.63,0,0,1,.89-.89l.61.61L8.58,7.7a.63.63,0,0,1,.88,0A.66.66,0,0,1,9.43,8.58Z"/><path class="cls-1" d="M1.37,9A6.26,6.26,0,0,1,7.62,2.72H9.06v.71A.62.62,0,0,0,9.38,4,.54.54,0,0,0,9.65,4,.7.7,0,0,0,10,3.93l2.2-1.41a.56.56,0,0,0,.28-.5.58.58,0,0,0-.28-.5L10,.09a.58.58,0,0,0-.61,0A.57.57,0,0,0,9.05.6v.76H7.61A7.6,7.6,0,0,0,0,9a.67.67,0,0,0,.68.67A.7.7,0,0,0,1.37,9Z"/><path class="cls-1" d="M12.47,5a5.24,5.24,0,0,1,.47.66.67.67,0,0,0,.57.32.64.64,0,0,0,.35-.1.61.61,0,0,0,.29-.42.62.62,0,0,0-.08-.5,9.34,9.34,0,0,0-.58-.82A.74.74,0,0,0,13,3.93H13a.68.68,0,0,0-.43.16.71.71,0,0,0-.25.45A.82.82,0,0,0,12.47,5Z"/><path class="cls-1" d="M14.47,10.18h-.18a.7.7,0,0,0-.66.5,3.47,3.47,0,0,1-.28.76.68.68,0,0,0,.37.89.8.8,0,0,0,.26,0A.65.65,0,0,0,14.6,12a6.9,6.9,0,0,0,.33-.93.56.56,0,0,0-.07-.52A.58.58,0,0,0,14.47,10.18Z"/><path class="cls-1" d="M15.07,7.42a.68.68,0,0,0-.66-.54.36.36,0,0,0-.14,0,.69.69,0,0,0-.43.3.64.64,0,0,0-.1.5c0,.26.08.54.12.8a.68.68,0,0,0,1.35-.11C15.18,8.06,15.12,7.73,15.07,7.42Z"/><path class="cls-1" d="M12.68,13h0a.7.7,0,0,0-.47.21c-.19.19-.38.38-.59.56a.66.66,0,0,0-.09,1A.65.65,0,0,0,12,15a.7.7,0,0,0,.44-.16,7.83,7.83,0,0,0,.73-.68.63.63,0,0,0,.17-.48.68.68,0,0,0-.21-.47A.82.82,0,0,0,12.68,13Z"/><path class="cls-1" d="M1.74,11.09a.68.68,0,0,0-.35-.39.94.94,0,0,0-.3-.07.78.78,0,0,0-.22,0,.67.67,0,0,0-.4.87,5.5,5.5,0,0,0,.4.9.67.67,0,0,0,.61.36,1.21,1.21,0,0,0,.31-.06.69.69,0,0,0,.29-.93A3,3,0,0,1,1.74,11.09Z"/><path class="cls-1" d="M3.37,13.55a.65.65,0,0,0-.45-.17h0a.67.67,0,0,0-.64.71.7.7,0,0,0,.21.47,8.94,8.94,0,0,0,.76.62.64.64,0,0,0,.4.13.65.65,0,0,0,.56-.3.76.76,0,0,0,.12-.5A.68.68,0,0,0,4,14.07,6.07,6.07,0,0,1,3.37,13.55Z"/><path class="cls-1" d="M10.23,14.89a.6.6,0,0,0-.3-.07l-.22,0a5.75,5.75,0,0,1-.78.23.69.69,0,0,0-.44.29.62.62,0,0,0-.09.51.69.69,0,0,0,.66.54.32.32,0,0,0,.14,0,6.57,6.57,0,0,0,1-.28.69.69,0,0,0,.38-.35.62.62,0,0,0-.31-.88Z"/><path class="cls-1" d="M6.75,15.15A6.91,6.91,0,0,1,6,15a.72.72,0,0,0-.52.07.67.67,0,0,0-.32.42.73.73,0,0,0,.07.52.63.63,0,0,0,.42.31,5.2,5.2,0,0,0,1,.19.7.7,0,0,0,.5-.12.69.69,0,0,0,.27-.45.7.7,0,0,0-.14-.5A.64.64,0,0,0,6.75,15.15Z"/></g></g></svg>