<svg xmlns="http://www.w3.org/2000/svg" viewBox="0 0 16 12.16"><defs><style>.cls-1{fill:#c8354e;}</style></defs><title>ico_back</title><g id="Capa_2" data-name="Capa 2"><g id="Capa_1-2" data-name="Capa 1"><path class="cls-1" d="M16,7.19a5,5,0,0,1-5,5H2.19a.55.55,0,0,1-.55-.55.54.54,0,0,1,.55-.54H11a3.88,3.88,0,1,0,0-7.75H6.27V5A.55.55,0,0,1,6,5.44a.53.53,0,0,1-.3.09.52.52,0,0,1-.21,0L.33,3.27a.54.54,0,0,1,0-1L5.51,0A.54.54,0,0,1,6,.09a.56.56,0,0,1,.25.46V2.23H11A5,5,0,0,1,16,7.19Z"/></g></g></svg>