<svg xmlns="http://www.w3.org/2000/svg" viewBox="0 0 11.92 14.9"><defs><style>.cls-1{fill:#59666e;}</style></defs><title>ico_pdf</title><g id="Capa_2" data-name="Capa 2"><g id="Capa_2-2" data-name="Capa 2"><path class="cls-1" d="M7.14,9.54c-.22-.19-.44-.43-.69-.68a3.69,3.69,0,0,1-.52-.74,3.42,3.42,0,0,0,.12-2.46.71.71,0,0,0-.64-.33.66.66,0,0,0-.66.41,3.5,3.5,0,0,0,.58,2.45c-.12.4-.28.84-.47,1.33q-.17.4-.36.78c-1.28.51-2.07,1.07-2.18,1.6a.63.63,0,0,0,.25.65A.75.75,0,0,0,3,12.7l.18,0c.6-.15,1.24-1,1.71-1.93a8.14,8.14,0,0,1,1-.31A10.13,10.13,0,0,1,7,10.15a2.82,2.82,0,0,0,1.59.75,1,1,0,0,0,.83-.35.58.58,0,0,0,.16-.72C9.28,9.39,8.42,9.3,7.14,9.54ZM3,12.12a.17.17,0,0,1-.13,0c-.06,0-.06-.08,0-.11,0-.19.4-.54,1.18-.91C3.65,11.65,3.28,12.06,3,12.12ZM5.25,6s0-.08.16-.08A.24.24,0,0,1,5.6,6a2.17,2.17,0,0,1,0,1.41A2.33,2.33,0,0,1,5.25,6Zm.44,3.92L5.22,10l.14-.31c.11-.3.24-.6.35-.91a3.57,3.57,0,0,0,.34.44l.43.44C6.23,9.74,6,9.8,5.69,9.88ZM9,10.16a.51.51,0,0,1-.42.18A1.61,1.61,0,0,1,7.73,10C8.64,9.88,9.16,10,9,10.16Z"/><path class="cls-1" d="M11.57,3.78,8.14.35A1.18,1.18,0,0,0,7.32,0H1.16A1.12,1.12,0,0,0,.35.35,1.12,1.12,0,0,0,0,1.16V13.74A1.16,1.16,0,0,0,1.16,14.9h9.6a1.16,1.16,0,0,0,1.16-1.16V4.6A1.18,1.18,0,0,0,11.57,3.78Zm-.65.28H8.37a.51.51,0,0,1-.51-.52V1Zm-.16,10.16H1.16a.48.48,0,0,1-.49-.48V1.16A.46.46,0,0,1,.82.82.46.46,0,0,1,1.16.67h6V3.54a1.2,1.2,0,0,0,1.19,1.2h2.87v9A.47.47,0,0,1,10.76,14.22Z"/></g></g></svg>