<svg xmlns="http://www.w3.org/2000/svg" viewBox="0 0 12.06 18.86"><defs><style>.cls-1{fill:#59666e;}</style></defs><title>ico_download_pdf</title><g id="Capa_2" data-name="Capa 2"><g id="Capa_2-2" data-name="Capa 2"><path class="cls-1" d="M7.61,16.49,6.36,17.7V13.11A.34.34,0,0,0,6,12.78a.35.35,0,0,0-.34.33V17.7L4.43,16.49a.33.33,0,0,0-.48,0A.34.34,0,0,0,4,17l1.83,1.79a.34.34,0,0,0,.48,0L8.09,17a.33.33,0,0,0,0-.48A.36.36,0,0,0,7.61,16.49Z"/><path class="cls-1" d="M4.89,9.48c-.1.28-.24.53-.36.79-1.31.52-2.09,1.08-2.21,1.63a.68.68,0,0,0,.24.66.69.69,0,0,0,.42.16.75.75,0,0,0,.2,0c.6-.16,1.25-1.06,1.73-1.95.3-.1.61-.22,1-.32L7,10.13a2.79,2.79,0,0,0,1.61.76,1.18,1.18,0,0,0,.84-.34.6.6,0,0,0,.16-.73c-.26-.44-1.14-.52-2.45-.28-.22-.2-.45-.42-.69-.68A4,4,0,0,1,6,8.11,3.45,3.45,0,0,0,6.08,5.6a.75.75,0,0,0-.66-.33.67.67,0,0,0-.67.41,3.44,3.44,0,0,0,.6,2.47,10.11,10.11,0,0,1-.46,1.33ZM3.06,12.14c-.08,0-.1,0-.12,0S2.88,12,2.88,12c0-.2.4-.53,1.19-.91A2.69,2.69,0,0,1,3.06,12.14Zm6.1-2.09-.06.1a.59.59,0,0,1-.44.18A1.64,1.64,0,0,1,7.81,10C8.74,9.86,9.12,10,9.16,10.05ZM5.31,5.88s0-.08.15-.08.16,0,.18.08a2.28,2.28,0,0,1,0,1.43A2.35,2.35,0,0,1,5.31,5.88Zm.11,3.8c.12-.3.24-.62.34-.94a3.09,3.09,0,0,0,.34.44,4.56,4.56,0,0,0,.44.44c-.26.06-.52.14-.8.22L5.27,10A1.4,1.4,0,0,0,5.42,9.68Z"/><path class="cls-1" d="M11.72,3.84,8.23.34A1.17,1.17,0,0,0,7.41,0H1.17A1.16,1.16,0,0,0,0,1.17V13.93A1.17,1.17,0,0,0,1.17,15.1H4.61a.34.34,0,1,0,0-.67H1.15a.49.49,0,0,1-.49-.5V1.17A.52.52,0,0,1,.79.83.55.55,0,0,1,1.15.7h6.1V3.62A1.22,1.22,0,0,0,8.46,4.83h2.93V14a.5.5,0,0,1-.5.5H7.45a.33.33,0,0,0-.34.33.34.34,0,0,0,.34.34h3.44A1.17,1.17,0,0,0,12.06,14V4.67A1.14,1.14,0,0,0,11.72,3.84ZM8,3.6V1l3.1,3.1H8.46A.51.51,0,0,1,8,3.6Z"/></g></g></svg>