<svg xmlns="http://www.w3.org/2000/svg" viewBox="0 0 18 21.48"><defs><style>.cls-1{fill:#59666e;}</style></defs><title>ico_client</title><g id="Capa_2" data-name="Capa 2"><g id="Capa_2-2" data-name="Capa 2"><path class="cls-1" d="M17.91,18.17l-2.48-4.9a1.13,1.13,0,0,0-.07-.86.31.31,0,0,1,0-.31A.29.29,0,0,1,15.7,12,1.34,1.34,0,0,0,17,11.19a1.15,1.15,0,0,0-.34-1.39.27.27,0,0,1-.09-.3.34.34,0,0,1,.21-.25,1.23,1.23,0,0,0,.87-1.17,1.25,1.25,0,0,0-.87-1.17.3.3,0,0,1-.21-.25.35.35,0,0,1,.12-.32A1.15,1.15,0,0,0,17,5,1.34,1.34,0,0,0,15.7,4.2h0a.31.31,0,0,1-.28-.14.29.29,0,0,1,0-.31,1.23,1.23,0,0,0-.26-1.4,1.37,1.37,0,0,0-1.49-.25.36.36,0,0,1-.33,0,.3.3,0,0,1-.15-.3A1.23,1.23,0,0,0,12.32.59a1.38,1.38,0,0,0-1.49.29.33.33,0,0,1-.31.14.36.36,0,0,1-.27-.21A1.3,1.3,0,0,0,9,0,1.33,1.33,0,0,0,7.76.81.29.29,0,0,1,7.52,1,.42.42,0,0,1,7.18.9,1.36,1.36,0,0,0,5.72.61a1.25,1.25,0,0,0-.81,1.22.29.29,0,0,1-.15.27.38.38,0,0,1-.33,0,1.39,1.39,0,0,0-1.49.25,1.18,1.18,0,0,0-.27,1.4.32.32,0,0,1-.36.45A1.34,1.34,0,0,0,1,5a1.2,1.2,0,0,0,.34,1.4.29.29,0,0,1,.1.29.32.32,0,0,1-.22.25A1.22,1.22,0,0,0,.4,8.1a1.26,1.26,0,0,0,.86,1.18.29.29,0,0,1,.22.24.38.38,0,0,1-.12.32A1.18,1.18,0,0,0,1,11.22a1.35,1.35,0,0,0,1.3.76.33.33,0,0,1,.29.14.35.35,0,0,1,0,.32,1.14,1.14,0,0,0-.07.83L.11,18.17a.91.91,0,0,0,.09,1,1.14,1.14,0,0,0,1,.43l2-.2s.08,0,.08,0L4.33,21a1.05,1.05,0,0,0,.89.45h.07a1.1,1.1,0,0,0,.89-.56l2.4-4.74a1.56,1.56,0,0,0,.45.09H9a1.39,1.39,0,0,0,.46-.07l2.4,4.74a1,1,0,0,0,.88.56h.07a1.05,1.05,0,0,0,.89-.45l1.11-1.55s0-.05.07-.05l2,.2a1.06,1.06,0,0,0,1-.42A1.22,1.22,0,0,0,17.91,18.17ZM5.29,20.47a.08.08,0,0,1-.07,0s-.07,0-.07,0L4,18.91a1.1,1.1,0,0,0-.89-.45H3l-1.94.2a.12.12,0,0,1-.07,0s0-.07,0-.07L3.3,14.06a1.39,1.39,0,0,0,1.13,0,.37.37,0,0,1,.33,0,.27.27,0,0,1,.15.29,1.23,1.23,0,0,0,.81,1.19,1.39,1.39,0,0,0,1.49-.29.33.33,0,0,1,.31-.09.33.33,0,0,1,.26.23s0,0,0,.06ZM9,15.28a.36.36,0,0,1-.34-.23,1.25,1.25,0,0,0-1-.76.83.83,0,0,0-.27,0,1.28,1.28,0,0,0-1,.41.33.33,0,0,1-.38.07.35.35,0,0,1-.22-.32,1.21,1.21,0,0,0-.59-1.08A1.39,1.39,0,0,0,4,13.25a.32.32,0,0,1-.38-.07.3.3,0,0,1-.08-.36,1.18,1.18,0,0,0-.09-1.2,1.41,1.41,0,0,0-1.18-.56A.34.34,0,0,1,2,10.47a1.17,1.17,0,0,0,.39-1.15,1.28,1.28,0,0,0-.84-.92.32.32,0,0,1-.22-.3.31.31,0,0,1,.22-.29,1.31,1.31,0,0,0,.84-.93A1.2,1.2,0,0,0,2,5.71a.28.28,0,0,1-.07-.36.35.35,0,0,1,.36-.2,1.38,1.38,0,0,0,1.15-.57,1.12,1.12,0,0,0,.09-1.19A.29.29,0,0,1,3.59,3,.32.32,0,0,1,4,3a1.48,1.48,0,0,0,1.3-.09,1.26,1.26,0,0,0,.59-1.09.34.34,0,0,1,.6-.22,1.37,1.37,0,0,0,1.23.36,1.32,1.32,0,0,0,1-.79A.37.37,0,0,1,9,.93a.35.35,0,0,1,.33.22,1.37,1.37,0,0,0,2.21.43.33.33,0,0,1,.38-.11.31.31,0,0,1,.22.31,1.22,1.22,0,0,0,.6,1.09A1.37,1.37,0,0,0,14,3a.34.34,0,0,1,.39.07.28.28,0,0,1,.07.36,1.19,1.19,0,0,0,.1,1.19,1.38,1.38,0,0,0,1.15.57h0a.34.34,0,0,1,.34.2.33.33,0,0,1-.1.38,1.16,1.16,0,0,0-.38,1.15,1.27,1.27,0,0,0,.84.93.29.29,0,0,1,.21.29.3.3,0,0,1-.21.3,1.24,1.24,0,0,0-.84.92,1.16,1.16,0,0,0,.4,1.17.33.33,0,0,1,.08.37.37.37,0,0,1-.36.2,1.35,1.35,0,0,0-1.15.56,1.17,1.17,0,0,0-.1,1.22.28.28,0,0,1-.07.36.36.36,0,0,1-.41.07,1.45,1.45,0,0,0-1.3.09,1.27,1.27,0,0,0-.6,1.08.35.35,0,0,1-.21.32.34.34,0,0,1-.38-.09,1.35,1.35,0,0,0-1.23-.36,1.32,1.32,0,0,0-1,.79A.33.33,0,0,1,9,15.28Zm8,3.36c0,.05-.07.05-.07,0l-2-.18a1.09,1.09,0,0,0-1,.45l-1.1,1.56s0,.05-.07.05a.11.11,0,0,1-.08-.05l-2.51-5s0-.05,0-.07a.36.36,0,0,1,.27-.2.4.4,0,0,1,.31.09,1.34,1.34,0,0,0,1.46.29,1.25,1.25,0,0,0,.82-1.22.32.32,0,0,1,.14-.27.39.39,0,0,1,.34,0,1.39,1.39,0,0,0,1.13,0L17,18.53A.08.08,0,0,1,17,18.64Z"/><path class="cls-1" d="M13.76,8.1A4.63,4.63,0,0,0,9,3.63,4.62,4.62,0,0,0,4.26,8.1,4.62,4.62,0,0,0,9,12.57,4.63,4.63,0,0,0,13.76,8.1ZM9,11.65A3.65,3.65,0,0,1,5.24,8.1,3.65,3.65,0,0,1,9,4.56,3.66,3.66,0,0,1,12.77,8.1,3.66,3.66,0,0,1,9,11.65Z"/></g></g></svg>