<svg xmlns="http://www.w3.org/2000/svg" viewBox="0 0 18.17 19.47"><defs><style>.cls-1{fill:#59666e;}</style></defs><title>ico_process</title><g id="Capa_2" data-name="Capa 2"><g id="Capa_1-2" data-name="Capa 1"><path class="cls-1" d="M1.52,10.45A7.58,7.58,0,0,1,9.09,2.87h2v.78a.53.53,0,0,0,.29.49.62.62,0,0,0,.26.06A.6.6,0,0,0,12,4.12L14.4,2.59a.59.59,0,0,0,.26-.47.59.59,0,0,0-.26-.48h0L12,.09a.55.55,0,0,0-.57,0,.53.53,0,0,0-.29.49v.78h-2A9.13,9.13,0,0,0,0,10.45a.77.77,0,0,0,.76.76A.77.77,0,0,0,1.52,10.45Z"/><path class="cls-1" d="M18,8.61A.77.77,0,0,0,17.24,8a.34.34,0,0,0-.14,0,.76.76,0,0,0-.59.9c.06.33.1.66.14,1a.75.75,0,0,0,.76.69h.06a.75.75,0,0,0,.69-.82A11.63,11.63,0,0,0,18,8.61Z"/><path class="cls-1" d="M15.52,6.48a.76.76,0,0,0,1.05.24.8.8,0,0,0,.34-.47.64.64,0,0,0-.1-.57,7,7,0,0,0-.69-1,.8.8,0,0,0-.52-.29h-.08a.78.78,0,0,0-.47.16.91.91,0,0,0-.29.51.78.78,0,0,0,.17.56A5.15,5.15,0,0,1,15.52,6.48Z"/><path class="cls-1" d="M17.3,12a.46.46,0,0,0-.2,0,.79.79,0,0,0-.74.56,6.32,6.32,0,0,1-.33.92.77.77,0,0,0,1.42.59,8.73,8.73,0,0,0,.39-1.12.77.77,0,0,0-.07-.58A.8.8,0,0,0,17.3,12Z"/><path class="cls-1" d="M15.17,15.36h0a.78.78,0,0,0-.53.25,6.59,6.59,0,0,1-.72.68.76.76,0,0,0-.1,1.06.77.77,0,0,0,1.07.1,8.28,8.28,0,0,0,.86-.82.75.75,0,0,0,0-1.06A.85.85,0,0,0,15.17,15.36Z"/><path class="cls-1" d="M8.05,17.94a5,5,0,0,1-1-.2.83.83,0,0,0-.58.08.71.71,0,0,0-.35.45.78.78,0,0,0,.54.94,7.91,7.91,0,0,0,1.16.25.78.78,0,0,0,.86-.66.75.75,0,0,0-.14-.55A.91.91,0,0,0,8.05,17.94Z"/><path class="cls-1" d="M4,16a.83.83,0,0,0-.51-.21h0a.78.78,0,0,0-.53.25.75.75,0,0,0-.21.55.8.8,0,0,0,.25.54,8.19,8.19,0,0,0,.92.73.79.79,0,0,0,1.06-.18.76.76,0,0,0-.18-1.07A8.1,8.1,0,0,1,4,16Z"/><path class="cls-1" d="M2,13a.78.78,0,0,0-.39-.43.94.94,0,0,0-.33-.08,1.26,1.26,0,0,0-.27,0,.76.76,0,0,0-.45,1c.15.37.29.74.47,1.09A.77.77,0,0,0,2,15a.76.76,0,0,0,.32-1A7.14,7.14,0,0,1,2,13Z"/><path class="cls-1" d="M12.2,17.62a.84.84,0,0,0-.32-.08,1.09,1.09,0,0,0-.25,0,8.23,8.23,0,0,1-.94.26.71.71,0,0,0-.47.33.8.8,0,0,0-.1.57.78.78,0,0,0,.9.6A7.13,7.13,0,0,0,12.16,19a.72.72,0,0,0,.43-.39.64.64,0,0,0,0-.57A.86.86,0,0,0,12.2,17.62Z"/><circle class="cls-1" cx="9.09" cy="10.45" r="1.23"/><circle class="cls-1" cx="5.47" cy="10.45" r="1.23"/><circle class="cls-1" cx="12.74" cy="10.45" r="1.23"/></g></g></svg>