<svg xmlns="http://www.w3.org/2000/svg" viewBox="0 0 12.62 15.45"><defs><style>.cls-1{fill:#fff;}</style></defs><title>ico_acceso_1</title><g id="Capa_2" data-name="Capa 2"><g id="Capa_2-2" data-name="Capa 2"><path class="cls-1" d="M5.09,9a.73.73,0,0,0,.52,1.25.69.69,0,0,0,.52-.21l1.81-1.8a.76.76,0,0,0,0-1L6.13,5.4a.74.74,0,1,0-1,1L5.63,7H.73a.73.73,0,1,0,0,1.46H5.64Z"/><path class="cls-1" d="M11.89,0h-9a.74.74,0,0,0-.74.73V4.18a.74.74,0,0,0,1.47,0V1.48h7.56V14H3.58V11.25a.74.74,0,0,0-1.47,0v3.47a.74.74,0,0,0,.74.73h9a.73.73,0,0,0,.73-.73V.73A.72.72,0,0,0,11.89,0Z"/></g></g></svg>