<svg xmlns="http://www.w3.org/2000/svg" viewBox="0 0 23.96 24.12"><defs><style>.cls-1{fill:#f1f3f4;}</style></defs><title>meenu</title><g id="Capa_2" data-name="Capa 2"><g id="Capa_2-2" data-name="Capa 2"><path class="cls-1" d="M11.42,10.28H1.8A1.82,1.82,0,0,0,0,12.08H0a1.82,1.82,0,0,0,1.8,1.79h9.65a1.81,1.81,0,0,0,1.79-1.79h0A1.81,1.81,0,0,0,11.42,10.28Z"/><path class="cls-1" d="M22.13,0H1.8A1.82,1.82,0,0,0,0,1.8H0A1.82,1.82,0,0,0,1.8,3.59H22.16A1.82,1.82,0,0,0,24,1.8h0A1.85,1.85,0,0,0,22.13,0Z"/><path class="cls-1" d="M22.13,20.53H1.8A1.81,1.81,0,0,0,0,22.32H0a1.82,1.82,0,0,0,1.8,1.8H22.16a1.82,1.82,0,0,0,1.8-1.8h0A1.84,1.84,0,0,0,22.13,20.53Z"/><polygon class="cls-1" points="23.15 11.92 17.9 8.89 17.9 14.95 23.15 11.92"/></g></g></svg>