<svg xmlns="http://www.w3.org/2000/svg" viewBox="0 0 31.05 16.2"><defs><style>.cls-1{fill:#25cc7c;}</style></defs><title>Recurso 16</title><g id="Capa_2" data-name="Capa 2"><g id="Capa_2-2" data-name="Capa 2"><path class="cls-1" d="M29.16,16.2H5.92A1.88,1.88,0,0,1,4,14.32H4V12.73a.81.81,0,0,1,.81-.81h0a.81.81,0,0,1,.81.81v1.58a.26.26,0,0,0,.25.27H29.16a.27.27,0,0,0,.27-.27V1.89a.27.27,0,0,0-.27-.27H5.93a.27.27,0,0,0-.27.27V3.41a.81.81,0,0,1-.81.81h0A.81.81,0,0,1,4,3.41V1.89A1.89,1.89,0,0,1,5.93,0H29.16a1.89,1.89,0,0,1,1.89,1.89V14.31A1.89,1.89,0,0,1,29.16,16.2Z"/><path class="cls-1" d="M17.55,10a2.21,2.21,0,0,1-1.17-.34l-12-7.76L5.3.54l12,7.76a.52.52,0,0,0,.56,0l12-7.76.86,1.32L18.76,9.62A2.15,2.15,0,0,1,17.55,10Z"/><rect class="cls-1" x="3.91" y="10.51" width="12" height="1.62" transform="translate(-4.99 9.19) rotate(-40.67)"/><rect class="cls-1" x="24.37" y="5.32" width="1.62" height="12" transform="translate(0.18 23.03) rotate(-49.31)"/><path class="cls-1" d="M.81,9.36h2.7a.81.81,0,0,1,.81.81h0a.81.81,0,0,1-.81.81H.81A.81.81,0,0,1,0,10.17H0A.81.81,0,0,1,.81,9.36Z"/><path class="cls-1" d="M.81,5.4h7a.81.81,0,0,1,.81.81h0A.81.81,0,0,1,7.83,7h-7A.81.81,0,0,1,0,6.21H0A.81.81,0,0,1,.81,5.4Z"/></g></g></svg>